<?xml version="1.0" standalone="no"?>
<!DOCTYPE svg PUBLIC "-//W3C//DTD SVG 1.1//EN" "http://www.w3.org/Graphics/SVG/1.1/DTD/svg11.dtd" >
<svg xmlns="http://www.w3.org/2000/svg">
<metadata>
This is a custom SVG webfont generated by Font Squirrel.
Copyright   : Copyright c 2006 by Jess Latham All rights reserved
Designer    : Jess Latham
Foundry     : Jess Latham
</metadata>
<defs>
<font id="webfontvTQJzs8F" horiz-adv-x="946" >
<font-face units-per-em="2048" ascent="1546" descent="-502" />
<missing-glyph horiz-adv-x="608" />
<glyph unicode=" "  horiz-adv-x="608" />
<glyph unicode="&#x09;" horiz-adv-x="608" />
<glyph unicode="&#xa0;" horiz-adv-x="608" />
<glyph unicode="!" horiz-adv-x="376" d="M100 74q0 33 23.5 56.5t58.5 23.5q31 0 55.5 -24t24.5 -56.5t-24.5 -57t-55.5 -24.5q-35 0 -58.5 23.5t-23.5 58.5zM117 289v882q0 25 19.5 45.5t45.5 20.5q23 0 43.5 -20.5t20.5 -45.5v-882q0 -27 -19.5 -47.5t-44.5 -20.5q-27 0 -46 19.5t-19 48.5z" />
<glyph unicode="&#x22;" horiz-adv-x="542" d="M106 860v307q0 27 18.5 46.5t45.5 19.5t46.5 -18.5t19.5 -47.5v-307q0 -27 -19.5 -45t-46.5 -18t-45.5 18t-18.5 45zM307 860v307q0 29 18.5 47.5t45 18.5t46 -18.5t19.5 -47.5v-307q0 -27 -19.5 -45t-46 -18t-45 18t-18.5 45z" />
<glyph unicode="#" horiz-adv-x="937" d="M111 780q0 25 19.5 44.5t43.5 19.5h55l23 88h-78q-27 0 -45 18.5t-18 42.5q0 27 18 46.5t45 19.5h109l28 121l-2 -2q2 23 20.5 37t43.5 14q27 0 45 -18.5t18 -45.5q0 -16 -20 -98v-8h155l29 121l-2 -2q2 23 20.5 37t40.5 14q27 0 46.5 -18.5t19.5 -45.5q0 -6 -10 -49 t-13 -57h27q27 0 45.5 -19.5t18.5 -46.5q0 -25 -18.5 -43t-45.5 -18h-55l-23 -88h78q25 0 44.5 -19.5t19.5 -44.5q0 -27 -18.5 -46t-45.5 -19h-108l-29 -119l2 2q-10 -53 -64 -53q-27 0 -45 18.5t-18 44.5q0 16 22 107h-155l-31 -119l2 2q-10 -53 -61 -53q-27 0 -46.5 18.5 t-19.5 44.5q0 6 10.5 49t12.5 58h-27q-27 0 -45 19t-18 46zM362 844h156l23 88h-158z" />
<glyph unicode="$" horiz-adv-x="997" d="M111 346q0 27 20.5 45.5t44.5 18.5q55 0 64 -60q0 -2 1 -12t1 -14q0 -16 2 -27q16 -104 102 -160q29 -20 60 -28v483q-295 100 -295 326q0 127 84 215t208 104q4 78 66 78q70 0 66 -84q121 -27 192.5 -119t71.5 -219q0 -27 -19.5 -44.5t-44.5 -17.5q-53 0 -63 54 q-4 20 -4 33l-4 36q-31 113 -129 142v-412q315 -129 315 -371q0 -143 -88 -235t-227 -107v-159q0 -25 -19.5 -44.5t-46.5 -19.5q-23 0 -43 20.5t-20 43.5v163q-137 27 -216 127.5t-79 243.5zM240 918q0 -119 166 -189v377q-72 -14 -119 -66t-47 -122zM535 100 q84 10 135 67.5t51 147.5q0 143 -186 230v-445z" />
<glyph unicode="%" horiz-adv-x="1497" d="M121 881q0 133 77.5 248.5t209.5 115.5q129 0 206.5 -115.5t77.5 -248.5t-77.5 -250t-206.5 -117q-90 0 -158 60.5t-98.5 141.5t-30.5 165zM250 881q0 -86 42 -162t115.5 -76t114.5 77t41 161t-41 159.5t-114.5 75.5t-115.5 -75.5t-42 -159.5zM397 41q0 23 502 1067 l33 72q16 37 59 37q27 0 44.5 -18.5t17.5 -47.5q0 -31 -516 -1104q-2 -6 -7.5 -15l-9.5 -16l-2 -6q-14 -33 -55 -33q-25 0 -45.5 18.5t-20.5 45.5zM750 311q0 133 77.5 249t206.5 116q133 0 210 -116t77 -249q0 -135 -77 -250.5t-210 -115.5q-129 0 -206.5 115.5 t-77.5 250.5zM877 311q0 -84 42 -160.5t115.5 -76.5t115.5 76.5t42 160.5t-42 161t-115.5 77t-115.5 -77t-42 -161z" />
<glyph unicode="&#x26;" horiz-adv-x="1589" d="M123 240q0 68 28.5 131t83 118.5t101.5 92t115 82.5q-123 162 -123 299q0 129 97 210.5t226 81.5q119 0 195 -68.5t76 -187.5q0 -61 -24 -114.5t-73 -102.5t-83.5 -75.5t-100.5 -71.5q154 -164 471 -379q61 109 62 227q0 41 -19 119q-2 6 -2 16q0 25 19.5 44.5t46 19.5 t45 -25.5t25.5 -64.5t9 -63.5t2 -45.5q0 -150 -81 -299l47 -26q78 -47 116 -76q27 -27 27 -53q0 -25 -18.5 -45.5t-44.5 -20.5q-25 0 -203 119h2h-4q-98 -104 -241.5 -155.5t-295.5 -51.5q-143 0 -268 50t-178 163q-35 80 -35 152zM252 236q0 -121 106.5 -176.5t243.5 -55.5 q281 0 432 150q-326 217 -499 409q-283 -184 -283 -327zM457 965q0 -102 98 -232q53 35 82 56.5t72 58.5t63.5 75t20.5 76q0 61 -39 94t-103 33q-76 0 -135 -44.5t-59 -116.5z" />
<glyph unicode="'" horiz-adv-x="339" d="M98 860v307q0 29 18.5 47.5t47.5 18.5q27 0 45 -18.5t18 -47.5v-307q0 -27 -18.5 -45t-45 -18t-46 18t-19.5 45z" />
<glyph unicode="(" horiz-adv-x="630" d="M104 401q0 160 25 314q10 66 30.5 135.5t56.5 154.5t94.5 139t127.5 54q25 0 45.5 -20.5t20.5 -42.5q0 -27 -20.5 -46.5t-45.5 -19.5q-37 0 -71.5 -46t-57 -115.5t-35 -124t-20.5 -99.5q-20 -135 -21 -283q0 -145 21 -282q8 -45 20.5 -98.5t35 -124t57 -116.5t71.5 -46 q25 0 45.5 -18.5t20.5 -43.5q0 -27 -20.5 -46t-45.5 -19q-68 0 -125 53t-93 137t-57.5 155t-33.5 138q-25 149 -25 311z" />
<glyph unicode=")" horiz-adv-x="630" d="M104 -328q0 25 19.5 43.5t46.5 18.5q37 0 70.5 46t56 114.5t36 126t19.5 98.5q23 133 23 282q0 154 -23 283q-16 113 -65 249t-117 136q-27 0 -46.5 18.5t-19.5 47.5q0 25 19.5 44t46.5 19q70 0 127 -54t93 -139t56.5 -155t30.5 -135q27 -147 27 -313t-27 -312 q-10 -66 -31.5 -138.5t-58.5 -155.5t-93 -136t-124 -53q-27 0 -46.5 18t-19.5 47z" />
<glyph unicode="*" horiz-adv-x="843" d="M109 709q0 33 26 53l164 112l-164 109q-27 20 -26 53q0 27 18 46.5t45 19.5q23 0 172 -105v148q0 27 18.5 46t45 19t46 -19.5t19.5 -45.5v-156q133 100 166 101q29 0 47.5 -18.5t18.5 -45.5q0 -33 -29 -55l-146 -99l79 -53q50 -35 67 -45q29 -23 29 -53 q0 -29 -18.5 -47.5t-47.5 -18.5q-27 0 -166 101v-154q0 -29 -19.5 -47t-46 -18t-45 19t-18.5 46v146q-145 -102 -172 -102.5t-45 18t-18 45.5z" />
<glyph unicode="+" horiz-adv-x="909" d="M111 647q0 27 18 45.5t45 18.5h199v198q0 29 18.5 47.5t46.5 18.5q27 0 45.5 -19.5t18.5 -46.5v-198h198q27 0 46.5 -18.5t19.5 -45.5q0 -25 -19.5 -45t-46.5 -20h-198v-199q0 -25 -18.5 -44.5t-45 -19.5t-46 19.5t-19.5 44.5v199h-199q-27 0 -45 20t-18 45z" />
<glyph unicode="," horiz-adv-x="397" d="M98 -106q2 23 22.5 67.5t22.5 56.5q-25 25 -24 58q0 31 25.5 56.5t56 25.5t54.5 -23.5t28 -54.5v-17q0 -43 -42 -125.5t-77 -93.5q-25 -8 -46.5 8.5t-19.5 41.5z" />
<glyph unicode="-" horiz-adv-x="743" d="M106 653q0 27 19.5 45.5t46.5 18.5h375q27 0 44 -18.5t17 -45.5q0 -25 -18.5 -45t-42.5 -20h-375q-27 0 -46.5 20t-19.5 45z" />
<glyph unicode="." horiz-adv-x="376" d="M100 74q0 33 23.5 56.5t58.5 23.5q31 0 55.5 -24t24.5 -56.5t-24.5 -57t-55.5 -24.5q-35 0 -58.5 23.5t-23.5 58.5z" />
<glyph unicode="/" horiz-adv-x="700" d="M106 41q0 12 155 528l181 600q4 23 21.5 37.5t40.5 14.5q27 0 46 -18.5t19 -45.5q0 -31 -336 -1128q-4 -20 -22 -36t-41 -16q-27 0 -45.5 18.5t-18.5 45.5z" />
<glyph unicode="0" horiz-adv-x="1110" d="M104 616q0 170 62.5 336t189.5 248q84 55 178.5 55t178.5 -55q127 -82 189.5 -248t62.5 -336t-63.5 -335.5t-188.5 -249.5q-84 -55 -178.5 -55.5t-178.5 55.5q-125 84 -188.5 249.5t-63.5 335.5zM233 616q0 -141 48.5 -277t146.5 -200q47 -35 106.5 -35t106.5 35 q98 63 146.5 199.5t48.5 277.5q0 133 -50.5 269.5t-144.5 206.5q-51 35 -106 34q-53 0 -107 -34q-94 -70 -144.5 -206.5t-50.5 -269.5z" />
<glyph unicode="1" horiz-adv-x="866" d="M227 1057q0 35 27 53q141 111 184 111q27 0 46.5 -18.5t19.5 -45.5v-1026h39q27 0 46 -18.5t19 -46.5q0 -25 -19.5 -44.5t-45.5 -19.5h-207q-25 0 -44.5 19.5t-19.5 44.5q0 27 18.5 46t45.5 19h39v901q-66 -41 -84 -41q-27 0 -45.5 18.5t-18.5 47.5z" />
<glyph unicode="2" horiz-adv-x="962" d="M100 877q0 152 105.5 259t257.5 107q150 0 256 -107.5t106 -258.5q0 -92 -24.5 -164t-79.5 -128.5t-97 -88t-122 -82.5l-91 -59.5t-73 -58.5t-66.5 -79t-31.5 -90h508q27 0 46 -18.5t19 -45.5q0 -25 -19.5 -45t-45.5 -20h-578l-25 2l-20 16l-19 23l-2 24q0 88 26 159 t81 128.5t97 90t120 81.5q63 41 99 67.5t81 71t65.5 96.5t20.5 115q0 100 -66.5 171t-164.5 71t-166 -69.5t-68 -167.5q0 -29 -18 -47.5t-45 -18.5t-46.5 18.5t-19.5 47.5z" />
<glyph unicode="3" horiz-adv-x="1009" d="M102 346q0 27 18.5 45.5t45.5 18.5t46 -18.5t19 -45.5q0 -102 76 -174t178 -72q104 0 180 72t76 174.5t-75.5 173t-180.5 70.5q-27 0 -45 18.5t-18 45t18.5 46t46.5 19.5q88 0 157 57.5t69 143.5t-69 143t-157 57q-90 0 -158.5 -57t-68.5 -143q0 -27 -18.5 -45.5 t-46.5 -18.5q-27 0 -45.5 18.5t-18.5 45.5q0 141 106.5 235t249.5 94q141 0 248 -94t107 -235q0 -166 -144 -265q80 -51 126 -133t46 -176q0 -158 -113.5 -266.5t-271.5 -108.5q-156 0 -269.5 108.5t-113.5 266.5z" />
<glyph unicode="4" horiz-adv-x="983" d="M102 651l93 537q4 23 21 38t42 15q29 0 48.5 -20.5t17.5 -53.5l-80 -462h336v473q0 27 18 45t45 18q25 0 45.5 -18.5t20.5 -44.5v-473h71q27 0 46.5 -18.5t19.5 -47.5q0 -25 -19.5 -44.5t-46.5 -19.5h-71v-516q0 -27 -20.5 -46t-45.5 -19q-27 0 -45 19.5t-18 45.5v516 h-414q-27 0 -45.5 20.5t-18.5 55.5z" />
<glyph unicode="5" horiz-adv-x="972" d="M102 381v10q0 31 1 45.5t17.5 33.5t51.5 19q27 0 43 -21.5t16 -45.5q0 -4 -1 -12.5t-1 -10.5v-18q0 -111 66.5 -191.5t173.5 -80.5q109 0 173.5 99t64.5 216t-64.5 217t-173.5 100q-111 0 -213 -98q-23 -23 -53 -18q-31 -4 -54.5 17.5t-21.5 51.5l53 461q8 57 66 57h495 q25 0 45.5 -19t20.5 -46q0 -25 -20.5 -44.5t-45.5 -19.5h-438q-4 -37 -15.5 -118.5t-17.5 -149.5q104 55 199 55q166 0 266.5 -139t100.5 -307t-100.5 -306t-266.5 -138q-160 0 -263.5 119.5t-103.5 281.5z" />
<glyph unicode="6" horiz-adv-x="1013" d="M109 326q-31 199 50 428t236 374q90 84 207 117h10q25 0 44.5 -18.5t19.5 -44.5q0 -49 -43 -62q-4 -2 -14.5 -5t-14.5 -5q-29 -10 -39 -18q-190 -106 -282 -363q90 66 206 66q164 0 274.5 -122t110.5 -286t-110.5 -284.5t-274.5 -120.5q-145 0 -251 99.5t-129 244.5z M233 387q0 -111 74 -193.5t182.5 -82.5t182 82.5t73.5 193.5q0 113 -73.5 196t-182 83t-182.5 -83t-74 -196z" />
<glyph unicode="7" horiz-adv-x="962" d="M100 1146.5q0 24.5 19.5 45t44.5 20.5h598q25 0 44 -20.5t19 -45t-286 -769.5l-131 -346v2q-16 -45 -62 -45q-27 0 -46 18.5t-19 46.5l383 1030h-498q-27 0 -46.5 19.5t-19.5 44z" />
<glyph unicode="8" horiz-adv-x="1009" d="M102 350q0 213 170 314q-141 100 -141 262q0 141 106.5 235t249.5 94q141 0 248 -94t107 -235q0 -164 -142 -264q78 -49 124 -132.5t46 -179.5q0 -156 -113.5 -264.5t-271.5 -108.5q-156 0 -269.5 108.5t-113.5 264.5zM231 350.5q0 -102.5 76 -173.5t178 -71 q104 0 180 71t76 173.5t-75.5 174t-180.5 71.5q-102 0 -178 -71.5t-76 -174zM260 926q0 -86 68.5 -143.5t158.5 -57.5q88 0 157 57.5t69 143.5t-69 143t-157 57q-90 0 -158.5 -57t-68.5 -143z" />
<glyph unicode="9" horiz-adv-x="1009" d="M102 872.5q0 155.5 114 264t269 108.5q168 0 276.5 -113.5t108.5 -279.5q0 -199 -91 -398.5t-238 -357.5q-84 -84 -115 -102q-14 -12 -37 -12q-27 0 -46 18t-19 45t20 47l49 47l53 49q152 166 232 361q-82 -49 -193 -49q-158 0 -270.5 108.5t-112.5 264zM231 872 q0 -104 76 -174.5t178 -70.5q104 0 180 70.5t76 174.5q0 102 -75.5 172t-180.5 70q-102 0 -178 -70t-76 -172z" />
<glyph unicode=":" horiz-adv-x="376" d="M100 72q0 35 23.5 58.5t58.5 23.5q31 0 55.5 -25t24.5 -57q0 -31 -24.5 -56.5t-55.5 -25.5q-35 0 -58.5 24.5t-23.5 57.5zM100 614q0 33 23.5 56.5t58.5 23.5q31 0 55.5 -23.5t24.5 -56t-24.5 -57.5t-55.5 -25q-35 0 -58.5 23.5t-23.5 58.5z" />
<glyph unicode=";" horiz-adv-x="397" d="M102 -84l41 102q-25 25 -24 58q0 31 25.5 56.5t56 25.5t54.5 -23.5t28 -54.5v-17q0 -47 -39 -133t-80 -86q-27 0 -44.5 20.5t-17.5 51.5zM119 614.5q0 32.5 25.5 56t56 23.5t56.5 -23.5t26 -56t-26 -57.5t-56.5 -25t-56 25t-25.5 57.5z" />
<glyph unicode="&#x3c;" horiz-adv-x="788" d="M106 655q0 33 27 54l418 278q25 12 37 12q27 0 45 -20.5t18 -44.5q0 -33 -28 -53l-342 -228l342 -231q29 -18 28 -51q0 -27 -18.5 -46.5t-44.5 -19.5q-20 0 -37 10l-416 279q-29 20 -29 61z" />
<glyph unicode="=" horiz-adv-x="909" d="M111 559q0 29 18 47.5t45 18.5h526q29 0 47.5 -19.5t18.5 -46.5q0 -25 -19.5 -44t-46.5 -19h-526q-27 0 -45 19t-18 44zM111 758q0 25 18 45t45 20h526q27 0 46.5 -20.5t19.5 -44.5q0 -27 -19.5 -45.5t-46.5 -18.5h-526q-27 0 -45 18.5t-18 45.5z" />
<glyph unicode="&#x3e;" horiz-adv-x="788" d="M106 371q0 35 29 51l344 231l-346 228q-27 20 -27 53q0 25 19.5 45t46.5 20q20 0 37 -12l414 -278q29 -16 28 -54q0 -41 -28 -61l-414 -279q-16 -10 -37 -10q-29 0 -47.5 19.5t-18.5 46.5z" />
<glyph unicode="?" horiz-adv-x="987" d="M111 889q0 162 103 259t267 97q152 0 255.5 -94t103.5 -244q0 -82 -34 -148.5t-71 -100t-112 -89.5l-23 -18q-66 -49 -90.5 -102.5t-24.5 -137.5v-8q0 -27 -2 -40t-17 -27.5t-44 -14.5q-66 0 -66 76v14q0 207 166 342l31 25q53 39 81 63.5t52.5 68.5t24.5 95 q0 96 -66.5 153.5t-165.5 57.5q-104 0 -171.5 -59.5t-67.5 -159.5q0 -70 -62 -70q-29 0 -48 17.5t-19 44.5zM336 72q0 33 25.5 57.5t56.5 24.5q35 0 58.5 -24t23.5 -58q0 -33 -23.5 -57.5t-58.5 -24.5q-31 0 -56.5 25.5t-25.5 56.5z" />
<glyph unicode="@" horiz-adv-x="1761" d="M125 371q0 268 155.5 485t409.5 309q127 41 234 41q281 0 464 -184t183 -463q0 -172 -60.5 -322.5t-187.5 -244.5q-98 -70 -188 -84l2 2q-16 -4 -33 -4q-55 0 -85 33.5t-30 89.5v28q-106 -82 -227 -82q-133 0 -217 93.5t-84 226.5q0 158 114.5 284t272.5 126 q135 0 219 -97l4 31q6 55 70 55q23 0 40 -24.5t17 -48.5l-80 -582q-2 0 -2 -2q152 39 239 195.5t87 326.5q0 223 -147.5 370.5t-370.5 147.5q-90 0 -189 -33q-217 -80 -349 -263t-132 -412q0 -268 178 -448.5t447 -180.5q35 0 57 2q233 25 352 174q18 27 51 27 q27 0 45.5 -18.5t18.5 -45.5q0 -18 -8 -37q-74 -113 -221.5 -172t-296.5 -59q-319 0 -535.5 219t-216.5 541zM590 295q0 -80 48 -135.5t124 -55.5q106 0 183 87.5t77 193.5q0 80 -48 135t-126 55q-104 0 -181 -87t-77 -193z" />
<glyph unicode="A" horiz-adv-x="1126" d="M102 51q0 29 381 1172q12 45 64 45q49 0 63 -45q2 -12 16 -53l39 -118l46 -141q281 -838 280 -860q0 -25 -20.5 -45t-44.5 -20q-49 0 -64 47l-135 416h-360l-71 -213l-67 -203q-16 -47 -61 -47q-27 0 -46.5 20t-19.5 45zM410 580h272l-135 419z" />
<glyph unicode="B" horiz-adv-x="950" d="M109 57v1133q0 25 19 45t46 20h262q131 0 218 -99t87 -230q0 -145 -104 -250q88 -47 137 -131t49 -187q0 -154 -111.5 -262t-265.5 -108h-270q-27 0 -47 22t-20 47zM240 119h206q100 0 173 69.5t73 169.5q0 98 -72.5 168t-173.5 70h-206v-477zM240 727h194q78 0 127 59.5 t49 139.5t-49 140t-125 60h-196v-399z" />
<glyph unicode="C" horiz-adv-x="1042" d="M100 625q0 174 64.5 341t191.5 255q90 55 181 55q92 0 175 -58.5t142 -142.5q57 -82 57 -123q0 -27 -20.5 -46t-44.5 -19q-43 0 -62 39q-102 219 -247 219q-53 0 -107 -37q-100 -66 -149.5 -203t-49.5 -280q0 -133 52.5 -272.5t146.5 -209.5q53 -35 107 -34 q145 0 247 219q18 37 62 37q25 0 45 -19.5t20 -44.5q0 -35 -57 -125q-57 -86 -140 -142.5t-177 -56.5q-96 0 -181 56q-129 84 -192.5 252t-63.5 340z" />
<glyph unicode="D" horiz-adv-x="995" d="M109 53v1133q0 25 20.5 46t46.5 21h279q96 0 178 -63.5t127 -145t74 -176.5q33 -123 32 -247q0 -123 -32 -246q-45 -152 -142.5 -267.5t-236.5 -115.5h-256q-12 -4 -25 -4q-27 0 -46 20t-19 45zM240 123h215q92 0 158.5 89t95.5 198q27 111 26 211q0 102 -26 213 q-29 111 -95.5 199.5t-158.5 88.5h-215v-999z" />
<glyph unicode="E" horiz-adv-x="882" d="M109 59v1129q0 25 19 45t46 20h518q27 0 46.5 -20.5t19.5 -44.5q0 -29 -18.5 -47.5t-47.5 -18.5h-452v-389h282q27 0 46.5 -20.5t19.5 -44.5q0 -27 -19.5 -46.5t-46.5 -19.5h-282v-477h452q29 0 47.5 -19.5t18.5 -46.5q0 -25 -19.5 -45t-46.5 -20h-518q-27 0 -46 20 t-19 45z" />
<glyph unicode="F" horiz-adv-x="882" d="M109 57v1129q0 27 19 46t46 19h518q29 0 47.5 -19.5t18.5 -46t-18.5 -46t-47.5 -19.5h-452v-389h282q27 0 46.5 -19.5t19.5 -46t-19.5 -46t-46.5 -19.5h-282v-543q0 -25 -19.5 -45t-46.5 -20t-46 20t-19 45z" />
<glyph unicode="G" horiz-adv-x="1110" d="M102 629q0 174 62.5 341t191.5 253q94 55 183 55q92 0 175 -58.5t142 -142.5q55 -92 55 -123q0 -25 -20.5 -45t-44.5 -20q-41 0 -60 39l-16 35l-27 43q-37 59 -91 100t-113 41q-51 0 -109 -35q-94 -70 -146.5 -210t-52.5 -273q0 -135 52.5 -275.5t146.5 -210.5 q55 -33 109 -32q100 0 172.5 93t105.5 214q16 57 23 145h-207q-27 0 -46.5 19.5t-19.5 46.5q0 25 19.5 45t46.5 20h276q25 0 45.5 -20.5t20.5 -44.5q0 -172 -64.5 -340t-191.5 -254q-84 -55 -180 -55q-94 0 -183 55q-127 86 -190.5 254t-63.5 340z" />
<glyph unicode="H" horiz-adv-x="935" d="M109 55v1135q0 27 19 46t46 19t46.5 -19t19.5 -46v-465h428v465q0 27 18.5 46t47 19t47 -19t18.5 -46v-1135q0 -25 -19.5 -45t-46 -20t-46 20.5t-19.5 44.5v539h-428v-539q0 -25 -19.5 -45t-46.5 -20t-46 20t-19 45z" />
<glyph unicode="I" horiz-adv-x="544" d="M92 72q0 27 19.5 46t46.5 19h41v971h-41q-27 0 -46.5 19.5t-19.5 46.5q0 25 19.5 45t46.5 20h213q25 0 45 -20.5t20 -44.5q0 -27 -20.5 -46.5t-44.5 -19.5h-41v-971h41q25 0 45 -19.5t20 -45.5q0 -25 -20.5 -45.5t-44.5 -20.5h-213q-27 0 -46.5 20.5t-19.5 45.5z" />
<glyph unicode="J" horiz-adv-x="1112" d="M102 330q0 25 18.5 45t45.5 20t46 -20.5t19 -44.5q0 -92 70 -155.5t162 -63.5q127 0 180 73.5t53 212.5v717h-88q-27 0 -46 18.5t-19 47t19.5 47t45.5 18.5h303q27 0 46.5 -18.5t19.5 -47t-19.5 -47t-46.5 -18.5h-84v-242v-475q0 -416 -364 -415q-147 0 -254 100.5 t-107 247.5z" />
<glyph unicode="K" horiz-adv-x="1003" d="M111 57v1135q0 25 18 45t45 20t46.5 -20t19.5 -45v-457l479 496q20 27 53 26q27 0 46.5 -20t19.5 -45t-21 -45l-373 -387l74 -115q354 -565 354 -592q0 -25 -20.5 -45t-42.5 -20q-35 0 -57 30l-402 644l-110 -115v-490q0 -29 -19.5 -47t-46.5 -18t-45 19t-18 46z" />
<glyph unicode="L" horiz-adv-x="882" d="M109 66v1124q0 27 19 46t46 19t46.5 -19t19.5 -46v-1059h452q27 0 46.5 -20.5t19.5 -44.5q0 -29 -18.5 -47.5t-47.5 -18.5h-518q-27 0 -46 18.5t-19 47.5z" />
<glyph unicode="M" horiz-adv-x="1216" d="M113 53v1131q0 29 19.5 47t45.5 18q20 0 41 -16t27 -37v2l344 -938l348 946v-2q16 45 63 45q25 0 45.5 -19.5t20.5 -45.5v-1131q0 -27 -20.5 -46t-45.5 -19q-27 0 -46 18.5t-19 46.5v762l-279 -760q-4 -25 -22.5 -41t-42.5 -16q-45 0 -62 47v-2l-286 776v-766 q0 -29 -19.5 -47t-46 -18t-46 18t-19.5 47z" />
<glyph unicode="N" horiz-adv-x="937" d="M109 53v1137q0 25 19 44t46 19q39 0 57 -34l439 -881v854q0 29 19.5 47t46 18t46 -18t19.5 -47v-1135q0 -25 -19.5 -45t-46.5 -20q-35 0 -57 37l-438 878v-854q0 -29 -19.5 -47t-46.5 -18t-46 18t-19 47z" />
<glyph unicode="O" horiz-adv-x="1110" d="M102 625q0 174 62.5 341t191.5 253q88 55 183 55q96 0 180 -55q129 -86 192.5 -253t63.5 -341q0 -172 -64.5 -340t-191.5 -254q-84 -55 -180 -56q-94 0 -183 56q-127 86 -190.5 254t-63.5 340zM231 625q0 -141 49.5 -279.5t149.5 -204.5q47 -35 109 -35q59 0 106 35 q100 66 149.5 203t49.5 281q0 133 -52.5 273t-146.5 210q-57 35 -106 35q-51 0 -109 -35q-94 -70 -146.5 -210t-52.5 -273z" />
<glyph unicode="P" horiz-adv-x="919" d="M109 53v1135q0 27 19 46t46 19h248q154 0 262.5 -108.5t108.5 -261.5q0 -152 -109 -260.5t-262 -108.5h-182v-461q0 -25 -19.5 -45t-46.5 -20t-46 20t-19 45zM240 645h182q100 0 170 68.5t70 169t-70 170t-170 69.5h-182v-477z" />
<glyph unicode="Q" horiz-adv-x="1110" d="M102 623q0 160 68 331.5t186 262.5q84 55 183 55q96 0 180 -55q121 -90 188.5 -262.5t67.5 -331.5q0 -252 -111 -437q86 -109 86 -141q0 -29 -18.5 -47t-46.5 -18q-41 0 -56 30l-53 70q-106 -106 -237 -107q-94 0 -183 56q-127 86 -190.5 254t-63.5 340zM231 623 q0 -139 50.5 -277.5t148.5 -206.5q47 -35 109 -35q82 0 159 78q-94 127 -94 151.5t19.5 45t46.5 20.5q31 0 51 -26l53 -74q70 139 70 324q0 133 -52.5 273t-146.5 210q-51 35 -106.5 35t-108.5 -35q-94 -70 -146.5 -210t-52.5 -273z" />
<glyph unicode="R" horiz-adv-x="911" d="M109 55v1125q0 29 19 47t46 18h248q154 0 262.5 -107.5t108.5 -260.5q0 -121 -59.5 -211.5t-166.5 -126.5l45 -88q199 -362 199 -394q0 -29 -18.5 -47t-47.5 -18q-39 0 -57 35l-254 481q-29 -2 -92 -2q-12 0 -33.5 1t-32.5 1h-36v-453q0 -27 -19.5 -46t-46.5 -19t-46 19 t-19 46zM240 641h182q98 0 170 68.5t72 167t-72 168t-170 69.5h-182v-473z" />
<glyph unicode="S" horiz-adv-x="983" d="M100 354q0 27 20.5 46.5t45.5 19.5q59 0 63 -62q0 -4 1 -15t1 -13q0 -14 5 -29q12 -102 104 -158q57 -41 145 -41q104 0 171 59.5t67 162.5q0 182 -283 270q-74 25 -125 48.5t-105 63t-82 98t-28 136.5q0 141 102.5 235.5t243.5 94.5q156 0 256.5 -99.5t100.5 -255.5 q0 -27 -19.5 -46t-46.5 -19q-51 0 -63 55l-2 2q-2 6 -2 37l-6 37q-45 154 -209 158h-9h-6q-84 0 -146 -56q-65 -57 -65 -143q0 -47 20.5 -84t62.5 -62.5t77 -41t92 -33.5q373 -125 373 -395q0 -160 -103.5 -256.5t-263.5 -96.5q-170 0 -278.5 106.5t-108.5 276.5z" />
<glyph unicode="T" horiz-adv-x="950" d="M98 1173.5q0 26.5 18.5 46t47.5 19.5h594q27 0 46 -19.5t19 -46t-19.5 -46t-45.5 -19.5h-232v-1047q0 -29 -19.5 -47t-46 -18t-46 18.5t-19.5 46.5v1047h-231q-29 0 -47.5 19.5t-18.5 46z" />
<glyph unicode="U" horiz-adv-x="1034" d="M111 344v850q0 25 19.5 45.5t46 20.5t46 -20.5t19.5 -45.5v-850q0 -113 71.5 -174t188.5 -61q119 0 189.5 60t70.5 175v850q0 25 20.5 45.5t44.5 20.5q27 0 46.5 -20.5t19.5 -45.5v-850q0 -174 -107.5 -270.5t-283.5 -96.5q-172 0 -281.5 98.5t-109.5 268.5z" />
<glyph unicode="V" horiz-adv-x="1126" d="M102 1188q0 27 19.5 46t46.5 19q53 0 63 -51l316 -969l315 975q12 45 64 45q25 0 45 -19.5t20 -45.5q0 -2 -258 -805q-80 -233 -123 -377q-16 -45 -63 -45q-51 0 -64 45l-210 644q-171 528 -171 538z" />
<glyph unicode="W" horiz-adv-x="1720" d="M111 1190q0 25 19.5 44t45.5 19q45 0 64 -49l266 -940l264 940q14 49 64 49q51 0 63 -49l266 -940l267 940v-4q4 23 22 38t41 15q27 0 45 -19.5t18 -43.5q0 -29 -329 -1182l2 6q-10 -53 -66 -53q-47 0 -63 47l-266 942l-265 -942q-16 -47 -63 -47q-49 0 -64 47 q-25 80 -178 624t-153 558z" />
<glyph unicode="X" horiz-adv-x="991" d="M100 61q0 25 299 553l7 9q-305 530 -306 561q0 29 19.5 47t46.5 18q41 0 59 -39l-4 7l260 -461l258 461q18 33 58 32q25 0 45 -19.5t20 -45.5q0 -18 -268 -494l2 2q-8 -16 -22 -38l-19 -31l63 -111h-2l100 -172q75 -129 110.5 -195.5t35.5 -83.5q0 -27 -20.5 -46 t-44.5 -19q-35 0 -58 27l-258 466l-260 -460l2 2q-18 -35 -57 -35q-27 0 -46.5 18t-19.5 47z" />
<glyph unicode="Y" horiz-adv-x="978" d="M100 1188q0 25 19.5 45t46.5 20q37 0 57 -36l252 -472l250 467q16 41 59 41q27 0 46.5 -20.5t19.5 -44.5q0 -18 -258 -506l-51 -96v-529q0 -29 -18.5 -47t-47.5 -18t-47 18.5t-18 46.5v531l-9 14q-10 14 -14 23v-2q-287 528 -287 565z" />
<glyph unicode="Z" horiz-adv-x="993" d="M100 76q0 33 555 981l29 49h-498q-27 0 -46 20.5t-19 44.5q0 29 19.5 47.5t45.5 18.5h613q29 0 47 -18.5t18 -47.5q0 -16 -199 -364l-358 -617l-28 -49h499q27 0 46.5 -20.5t19.5 -44.5q0 -27 -18.5 -46.5t-47.5 -19.5h-612q-27 0 -46.5 19.5t-19.5 46.5z" />
<glyph unicode="[" horiz-adv-x="544" d="M68 -315v1466q0 27 18 46.5t45 19.5h262q27 0 45.5 -18.5t18.5 -47.5q0 -25 -18.5 -44.5t-45.5 -19.5h-196v-1337h196q27 0 45.5 -20.5t18.5 -44.5q0 -27 -18.5 -45.5t-45.5 -18.5h-262q-27 0 -45 18.5t-18 45.5z" />
<glyph unicode="\" horiz-adv-x="622" d="M68 41q0 31 335 1128q4 23 22.5 37.5t41.5 14.5q25 0 44 -18.5t19 -45.5q0 -8 -76 -267l-166 -555q-89 -296 -93 -312q-16 -45 -62 -46q-27 0 -46 18.5t-19 45.5z" />
<glyph unicode="]" horiz-adv-x="544" d="M68 -315q0 25 19 45t44 20h199v1337h-199q-27 0 -45 19.5t-18 44.5q0 27 18 46.5t45 19.5h262q27 0 45.5 -18.5t18.5 -47.5v-1466q0 -27 -18.5 -45.5t-45.5 -18.5h-262q-27 0 -45 18.5t-18 45.5z" />
<glyph unicode="^" horiz-adv-x="696" d="M70 713q0 14 204 444q18 35 61.5 35t59.5 -35q31 -57 118 -242.5t87 -201.5q0 -27 -18.5 -45.5t-44.5 -18.5q-37 0 -58 35l-143 301l-146 -301q-12 -35 -55 -35q-27 0 -46 18.5t-19 45.5z" />
<glyph unicode="_" horiz-adv-x="794" d="M-4 0h799v-102h-799v102z" />
<glyph unicode="`" horiz-adv-x="530" d="M102 1204.5q0 20.5 21.5 35.5t48.5 15q31 0 55 -20l179 -131q27 -14 26 -41q0 -18 -20.5 -34.5t-49.5 -16.5q-27 0 -49 18l-190 139q-21 15 -21 35.5z" />
<glyph unicode="a" d="M100 344q0 145 98.5 256t245.5 111q127 0 228 -90v14q0 25 18.5 45t45 20t46 -20.5t19.5 -44.5v-578q0 -29 -19.5 -47t-46 -18t-45 19.5t-18.5 45.5v9q-104 -90 -228 -91q-147 0 -245.5 111t-98.5 258zM229 344q0 -96 61.5 -168t154 -72t152.5 72t60 168t-60 167 t-152.5 71t-154 -72t-61.5 -166z" />
<glyph unicode="b" d="M111 51v1112q0 25 19.5 44.5t43.5 19.5q27 0 46.5 -19.5t19.5 -44.5v-547q104 90 227 91q147 0 245.5 -111t98.5 -256q0 -147 -98.5 -258t-245.5 -111q-125 0 -227 92v-12q0 -25 -19.5 -44t-46.5 -19t-45 19t-18 44zM252 340q0 -96 61.5 -168t153.5 -72t153.5 73 t61.5 167t-62.5 166t-152.5 72q-92 0 -153.5 -72t-61.5 -166z" />
<glyph unicode="c" horiz-adv-x="872" d="M100 344q0 145 98.5 256t243.5 111q143 0 248 -109q47 -39 47 -86q0 -29 -18.5 -47t-46.5 -18q-35 0 -49 22q-63 109 -181 109q-92 0 -152.5 -72t-60.5 -166q0 -96 60.5 -168t152.5 -72q51 0 100.5 28t71.5 71v-2q20 39 60 39q29 0 48 -19.5t19 -46.5q0 -18 -12 -35 q-47 -76 -123 -120t-164 -44q-147 0 -244.5 111t-97.5 258z" />
<glyph unicode="d" d="M100 342q0 145 98.5 256t245.5 111q137 0 228 -91v547q0 25 19.5 44.5t43.5 19.5q27 0 46.5 -19.5t19.5 -44.5v-1110q0 -27 -19.5 -46t-46 -19t-45 19.5t-18.5 45.5v8q-104 -90 -228 -90q-147 0 -245.5 111t-98.5 258zM229 342q0 -96 61.5 -168t154 -72t152.5 72t60 168 t-60 167t-152.5 71t-154 -72t-61.5 -166z" />
<glyph unicode="e" horiz-adv-x="923" d="M100 344q0 145 98.5 256t246 111t245.5 -111t98 -256q0 -27 -19 -46t-46 -19h-483q18 -76 73.5 -125.5t130.5 -49.5q119 0 187 95q25 31 53 30q27 0 46.5 -18t19.5 -45q0 -12 -11 -33q-43 -78 -122.5 -118t-172.5 -40q-147 0 -245.5 111t-98.5 258zM240 408h409 q-18 74 -74.5 124t-130.5 50q-72 0 -128 -50t-76 -124z" />
<glyph unicode="f" horiz-adv-x="882" d="M100 659.5q0 26.5 18.5 46t45.5 19.5h84v270q0 113 66.5 174.5t181.5 61.5q61 0 138 -37t105 -86v2q10 -20 11 -39q0 -25 -18.5 -44t-45.5 -19t-57 30v-2q-66 66 -131 66q-51 0 -86 -23.5t-35 -70.5v-283h153q25 0 44.5 -19.5t19.5 -46t-19.5 -45t-44.5 -18.5h-153v-545 q0 -25 -19.5 -44t-46 -19t-45 19.5t-18.5 43.5v545h-84q-27 0 -45.5 18.5t-18.5 45z" />
<glyph unicode="g" horiz-adv-x="935" d="M100 346q0 145 98.5 256t245.5 111q119 0 218 -84v4q0 27 20 46t45 19q27 0 45.5 -19.5t18.5 -45.5v-758q0 -20 -15 -63q-33 -68 -97.5 -115t-137.5 -62v3q-33 -8 -84 -9q-61 0 -149.5 30t-127.5 75q-16 18 -16 43q0 27 19.5 45t43.5 18q20 0 49 -22q90 -61 181 -62 q31 0 61 6q125 25 144 113v186q-90 -84 -218 -84q-147 0 -245.5 111t-98.5 258zM229 346q0 -94 61.5 -167t154 -73t152.5 72t60 168t-60 167t-152.5 71t-154 -72t-61.5 -166z" />
<glyph unicode="h" horiz-adv-x="833" d="M109 53v1110q0 25 19 44.5t44 19.5q27 0 46.5 -19.5t19.5 -44.5v-524q84 70 184 70q129 0 206 -94.5t77 -223.5v-338q0 -27 -20.5 -46t-45.5 -19q-27 0 -45.5 19.5t-18.5 45.5v338q0 76 -40.5 132.5t-112.5 56.5q-98 0 -141 -62.5t-43 -185.5v-17v-262q0 -29 -18.5 -47 t-47.5 -18q-27 0 -45 19t-18 46z" />
<glyph unicode="i" horiz-adv-x="376" d="M106 842q0 35 24 58.5t58 23.5q31 0 55.5 -25t24.5 -57.5t-24.5 -56t-55.5 -23.5q-35 0 -58.5 23.5t-23.5 56.5zM123 53v576q0 25 19.5 45t45.5 20q23 0 43.5 -20.5t20.5 -44.5v-576q0 -25 -20.5 -45t-43.5 -20q-27 0 -46 20t-19 45z" />
<glyph unicode="j" horiz-adv-x="389" d="M-55 -303q0 55 61.5 63.5t81.5 30.5v-2q39 45 39 131v709q0 25 19.5 45t46.5 20q23 0 43 -20.5t20 -44.5v-715q0 -119 -64.5 -201t-181.5 -82q-25 0 -45 19.5t-20 46.5zM111 842q0 35 23.5 58.5t58.5 23.5q33 0 56 -25t23 -57.5t-23.5 -56t-55.5 -23.5q-35 0 -58.5 23.5 t-23.5 56.5z" />
<glyph unicode="k" horiz-adv-x="745" d="M106 51v1112q0 25 19.5 44.5t46.5 19.5t45.5 -19.5t18.5 -44.5v-714l294 239q20 16 41 17q25 0 45.5 -19.5t20.5 -44.5q0 -33 -23 -51l-213 -176l238 -328q6 -12 6 -35q0 -27 -17.5 -45t-45.5 -18q-37 0 -54 26l-2 4l-225 314l-65 -51v-230q0 -25 -18.5 -44t-45.5 -19 t-46.5 19t-19.5 44z" />
<glyph unicode="l" horiz-adv-x="339" d="M98 51v1112q0 25 19.5 44.5t46 19.5t45 -19.5t18.5 -44.5v-1112q0 -25 -18.5 -44t-45 -19t-46 19t-19.5 44z" />
<glyph unicode="m" horiz-adv-x="1335" d="M119 53v580q0 29 18.5 47t44.5 18q25 0 43.5 -16t20.5 -41q80 68 184 68q147 0 227 -125q92 125 238 125q129 0 206 -93.5t77 -222.5v-340q0 -27 -19.5 -46t-44.5 -19q-29 0 -47 18.5t-18 46.5v340q0 76 -41 131.5t-113 55.5q-92 0 -137 -81t-45 -184v-262 q0 -27 -19.5 -46t-44.5 -19q-27 0 -46 18.5t-19 46.5v340q0 76 -41 131.5t-113 55.5q-96 0 -142 -71q-42 -65 -43 -170q0 -9 1 -20v-10v-256q0 -29 -18.5 -47t-45 -18t-45 18t-18.5 47z" />
<glyph unicode="n" horiz-adv-x="831" d="M109 55v580q0 27 18 46t45 19q25 0 43 -16t23 -39q82 68 182 68q129 0 205.5 -94.5t76.5 -223.5v-338q0 -27 -20 -46t-45 -19q-27 0 -45.5 19.5t-18.5 45.5v338q0 78 -39.5 133.5t-113.5 55.5q-94 0 -138 -75t-44 -190v-264q0 -27 -18.5 -46t-47.5 -19q-27 0 -45 19 t-18 46z" />
<glyph unicode="o" horiz-adv-x="923" d="M100 346q0 145 98.5 256t246 111t245.5 -110.5t98 -256.5q0 -147 -98 -258t-245.5 -111t-246 111t-98.5 258zM229 346q0 -96 61.5 -168t154 -72t152.5 72t60 168q0 94 -60 165t-152.5 71t-154 -71t-61.5 -165z" />
<glyph unicode="p" d="M111 -309v944q0 25 18 45t45 20t46.5 -20.5t19.5 -44.5v-14q104 90 227 90q147 0 245.5 -111t98.5 -256q0 -147 -98.5 -258t-245.5 -111q-123 0 -227 91v-375q0 -27 -18.5 -45.5t-47.5 -18.5q-27 0 -45 18.5t-18 45.5zM252 344q0 -96 61.5 -168t153.5 -72t153.5 72 t61.5 168q0 94 -61.5 166t-153.5 72t-153.5 -71t-61.5 -167z" />
<glyph unicode="q" d="M100 344q0 145 98.5 256t245.5 111q127 0 228 -90v14q0 25 18.5 45t45 20t46 -20.5t19.5 -44.5v-944q0 -27 -18.5 -45.5t-47.5 -18.5q-27 0 -45 18.5t-18 45.5v375q-104 -90 -228 -91q-147 0 -245.5 111t-98.5 258zM229 344q0 -96 61.5 -168t154 -72t152.5 72t60 168 t-60 167t-152.5 71t-154 -72t-61.5 -166z" />
<glyph unicode="r" horiz-adv-x="577" d="M104 55v578q0 27 18.5 46t45.5 19q29 0 47 -19.5t18 -45.5v-12q88 78 185 77q25 0 45 -18t20 -45q0 -59 -57 -66q-88 -20 -140.5 -93t-52.5 -167v-254q0 -27 -18 -46t-47 -19q-27 0 -45.5 19t-18.5 46z" />
<glyph unicode="s" horiz-adv-x="821" d="M98 207q0 41 12.5 61.5t57.5 20.5q31 0 45 -22.5t14 -47.5q0 -117 170 -117q63 0 114.5 28t51.5 79q0 41 -46 60.5t-140 37.5q-25 4 -49 10l-49 13q-25 6 -46.5 14t-41 18.5t-35 24.5t-26.5 30.5t-17.5 40t-6.5 50.5q0 74 48.5 120t106.5 61.5t126 15.5q121 0 206 -52.5 t85 -171.5q0 -27 -21.5 -44t-46.5 -17q-57 0 -61 61q-4 37 -23 56q-31 39 -139 38q-152 0 -151 -65q0 -41 161 -74q55 -10 86 -18t77 -26.5t70.5 -40t43 -58.5t18.5 -84q0 -113 -91 -174.5t-204 -61.5q-123 0 -211 56.5t-88 177.5z" />
<glyph unicode="t" horiz-adv-x="620" d="M68 633q0 25 19 45t46 20h98v166q0 27 18.5 46.5t45.5 19.5q29 0 47 -18.5t18 -47.5v-166h105q27 0 45 -20.5t18 -44.5q0 -27 -18 -45.5t-45 -18.5h-105v-520q0 -25 -19 -44t-46 -19t-45.5 19.5t-18.5 43.5v520h-98q-27 0 -46 18.5t-19 45.5z" />
<glyph unicode="u" horiz-adv-x="831" d="M98 291v338q0 25 19.5 45t46.5 20q25 0 44 -20.5t19 -44.5v-338q0 -78 41 -134.5t113 -56.5q182 0 182 314v215q0 25 19.5 45t44 20t45 -20.5t20.5 -44.5v-580q0 -27 -20.5 -45t-45 -18t-43 17t-20.5 40q-82 -72 -182 -72q-131 0 -207 94.5t-76 225.5z" />
<glyph unicode="v" horiz-adv-x="823" d="M98 633q0 27 18.5 46t47.5 19q43 0 59 -43l174 -444l172 444q16 43 60 43q27 0 46 -19.5t19 -45.5q0 -12 -101 -278l-132 -343v6q-14 -45 -64 -45q-45 0 -65 39l-132 343q-102 266 -102 278z" />
<glyph unicode="w" horiz-adv-x="1257" d="M106 637q0 27 18.5 46t47.5 19q47 0 59 -45v2l156 -434l156 434v-4q14 47 63 47q45 0 62 -43l155 -432l156 432v-2q16 45 61 45q27 0 45.5 -19t18.5 -46q0 -8 -97.5 -285.5l-117.5 -331.5v5q-12 -45 -66 -45q-49 0 -63 40l-154 429l-153 -429v5q-12 -45 -65.5 -45 t-63.5 45v-5q-16 39 -117 324t-101 293z" />
<glyph unicode="x" horiz-adv-x="749" d="M92 51q0 12 8 29l185 266l-183 260q-10 20 -10 27q0 27 20.5 47t49.5 20q31 0 53 -28l145 -215l148 215l-2 -4q12 33 53 32q27 0 46.5 -18t19.5 -47q0 -4 -7 -29l-182 -260l185 -266q4 -8 4 -27q0 -29 -19.5 -47t-46.5 -18q-41 0 -53 32l2 -4l-148 217l-145 -219 q-23 -27 -53 -26q-29 0 -49.5 18t-20.5 45z" />
<glyph unicode="y" horiz-adv-x="835" d="M98 635q0 29 18.5 47t47.5 18q39 0 59 -41l183 -442l174 440v-2q16 45 61 45q27 0 46.5 -18t19.5 -47q0 -10 -172.5 -456.5t-202.5 -518.5v2q-14 -41 -60 -41q-25 0 -45 20.5t-20 43.5q0 18 14.5 57t42 105.5t39.5 99.5q35 82 39 96q-39 88 -141.5 337t-102.5 255z" />
<glyph unicode="z" horiz-adv-x="815" d="M98 70q0 23 17 43l366 438h-299q-25 0 -45 18.5t-20 44.5q0 25 20.5 44.5t44.5 19.5h441q23 0 43 -19.5t20 -44t-16 -41.5l-369 -438h299q27 0 46.5 -18.5t19.5 -46.5q0 -25 -19.5 -44.5t-46.5 -19.5h-436q-27 0 -46.5 19.5t-19.5 44.5z" />
<glyph unicode="{" horiz-adv-x="757" d="M106 426q0 25 18.5 46.5t45.5 21.5h16q31 0 36 7t5 52v475q0 84 58.5 143.5t140.5 59.5h133q25 0 44.5 -19.5t19.5 -46.5q0 -25 -19.5 -44t-44.5 -19h-133q-29 0 -49.5 -22.5t-20.5 -51.5v-481q0 -84 -18 -119q18 -33 18 -121v-481q0 -31 19.5 -52.5t50.5 -21.5h133 q25 0 44.5 -19.5t19.5 -45.5q0 -25 -20.5 -44.5t-43.5 -19.5h-133q-82 0 -140.5 59.5t-58.5 143.5v498q2 23 -2 30.5t-24 7.5h-8q-87 -8 -87 64z" />
<glyph unicode="|" horiz-adv-x="339" d="M98 -315v1484q0 27 18.5 46.5t47.5 19.5q27 0 45 -18.5t18 -47.5v-1484q0 -27 -18.5 -45.5t-45 -18.5t-46 18.5t-19.5 45.5z" />
<glyph unicode="}" horiz-adv-x="757" d="M106 -313q0 27 18.5 46t47.5 19h133q29 0 48.5 21.5t19.5 52.5v481q0 88 18 121q-18 35 -18 119v481q0 29 -19.5 51.5t-48.5 22.5h-133q-27 0 -46.5 18.5t-19.5 45t18.5 46t47.5 19.5h133q82 0 139.5 -59.5t57.5 -143.5v-475q0 -45 5 -52t34 -7h20q27 0 44.5 -21.5 t17.5 -46.5q0 -74 -88 -64h-7q-20 0 -24 -8t-2 -30v-498q0 -84 -57.5 -143.5t-139.5 -59.5h-133q-27 0 -46.5 19.5t-19.5 44.5z" />
<glyph unicode="~" horiz-adv-x="978" d="M111 522q0 96 52 166t148 70q70 0 114 -28t93 -81h-2q74 -78 129 -78q57 0 57 107q0 72 64 72q66 0 65 -72q0 -98 -45 -167t-141 -69q-49 0 -92 19.5t-65.5 38t-57.5 55.5q-70 74 -119 74q-72 0 -71 -107q0 -25 -19.5 -45t-44.5 -20q-27 0 -46 20t-19 45z" />
<glyph unicode="&#xa1;" horiz-adv-x="376" d="M100 909q0 31 23.5 55.5t58.5 24.5q31 0 55.5 -24.5t24.5 -55.5q0 -35 -24.5 -58.5t-55.5 -23.5q-35 0 -58.5 23.5t-23.5 58.5zM117 -190v884q0 27 19.5 45.5t45.5 18.5q25 0 44.5 -19.5t19.5 -44.5v-884q0 -25 -19.5 -44.5t-44.5 -19.5q-27 0 -46 18.5t-19 45.5z" />
<glyph unicode="&#xa2;" horiz-adv-x="884" d="M109 618q0 145 99 256t245 111h22l57 191l-2 -5q4 20 22.5 37t39.5 17q27 0 46 -19.5t19 -44.5q0 -8 -28.5 -109.5t-28.5 -103.5q86 -47 137 -129l29 -96q6 -39 -18.5 -60.5t-54 -14.5t-36.5 36q-6 33 -18 53l-14 19q-23 39 -60 65q-23 -74 -61.5 -217t-63.5 -223h13 q139 0 215 149q0 12 34.5 41t67.5 -2q18 -25 12 -57.5t-24 -60.5l-17 -29q-49 -78 -125.5 -124t-162.5 -46q-39 0 -47 2l-60 -207l2 4q-4 -23 -22.5 -37t-40.5 -14q-27 0 -45.5 18.5t-18.5 44.5q0 18 64 234q-82 49 -129 137t-47 184zM238 618q0 -123 84 -190l118 428 q-86 -4 -144 -75t-58 -163z" />
<glyph unicode="&#xa3;" horiz-adv-x="1126" d="M115 629q0 61 71 65q-20 70 -20 150q0 164 115.5 280.5t279.5 116.5q119 0 219.5 -69.5t149.5 -186.5q0 -2 1 -6t1 -6q0 -27 -20.5 -45.5t-45.5 -18.5q-39 0 -59 37l-6 15l-25 43l2 -3q-80 111 -217 111q-111 0 -188.5 -79t-77.5 -189q0 -70 27 -150h223q27 0 45 -19.5 t18 -45.5q0 -25 -19.5 -44.5t-43.5 -19.5h-172q59 -156 59 -270q0 -76 -18 -129q29 2 78 2q102 0 239 -47q68 -23 98 -23q12 0 37 13q35 10 41 10q23 0 43.5 -19.5t20.5 -44.5q0 -43 -50.5 -65.5t-91.5 -22.5q-53 0 -129 27h7l-9 2q-119 41 -206 41q-123 0 -234 -47l-14 -4 l22 6q-20 -10 -43 -10q-37 0 -57 47l-4 14q0 47 59 70q41 18 61.5 70.5t20.5 109.5q0 106 -67 268q-121 -4 -121 66z" />
<glyph unicode="&#xa5;" horiz-adv-x="997" d="M111 1163q0 27 19.5 45.5t45.5 18.5q41 0 57 -35l246 -463l248 463q16 35 57 35q27 0 46.5 -18.5t19.5 -45.5q0 -16 -101 -209l-178 -327h174q27 0 45.5 -19.5t18.5 -46t-18.5 -44t-45.5 -17.5h-202v-72h202q27 0 45.5 -19.5t18.5 -43.5q0 -27 -18.5 -46.5t-45.5 -19.5 h-202v-246q0 -25 -18.5 -45t-45.5 -20q-25 0 -44 20.5t-19 44.5v246h-201q-27 0 -45 19.5t-18 46.5q0 25 18 44t45 19h201v72h-201q-27 0 -45 17.5t-18 44t18 46t45 19.5h172q-276 503 -276 536z" />
<glyph unicode="&#xa6;" horiz-adv-x="339" d="M98 238q0 27 19.5 45t46 18t45 -18.5t18.5 -44.5v-557q0 -29 -18.5 -47.5t-44.5 -18.5q-29 0 -47.5 18.5t-18.5 47.5v557zM98 608v559q0 25 19.5 45.5t46 20.5t45 -20.5t18.5 -45.5v-559q0 -25 -18.5 -44t-45 -19t-46 19t-19.5 44z" />
<glyph unicode="&#xa7;" horiz-adv-x="999" d="M111 2q0 27 20.5 45.5t44.5 18.5q59 0 64 -58q2 -12 2 -43q0 -2 1 -9t1 -11q23 -88 102 -152q63 -39 148 -39q100 0 164.5 58.5t64.5 158.5q0 172 -277 267q-74 25 -123 48t-103 62t-81.5 96.5t-27.5 133.5q0 90 51 176q-51 78 -51 168q0 139 100 231t240 92 q154 0 252 -97t98 -251q0 -27 -18.5 -45t-45.5 -18q-55 0 -63 61l-2 33q-6 18 -6 37q-47 145 -203 151h-12q-84 2 -147.5 -54t-63.5 -140q0 -47 20.5 -83t62.5 -61.5t73.5 -39t88.5 -33.5q367 -121 367 -388q0 -96 -45 -180q45 -76 45 -166q0 -158 -101.5 -252t-256.5 -94 q-170 0 -276.5 104.5t-106.5 272.5zM240 578q0 -45 21.5 -81t62.5 -61.5t75.5 -42t85.5 -33.5q131 -43 230 -116q8 25 8 73q0 96 -81 162t-196 103q-131 43 -184 80q-22 -33 -22 -84z" />
<glyph unicode="&#xa8;" horiz-adv-x="567" d="M102 1038.5q0 32.5 25 57t57.5 24.5t57 -24.5t24.5 -57t-24.5 -56.5t-57.5 -24q-35 0 -58.5 24t-23.5 56.5zM281 1038.5q0 32.5 24.5 57t54.5 24.5q35 0 58.5 -24.5t23.5 -57.5q0 -35 -23.5 -57.5t-58.5 -22.5q-31 0 -55 24t-24 56.5z" />
<glyph unicode="&#xa9;" horiz-adv-x="1585" d="M123 602q0 266 187.5 453.5t453.5 187.5q264 0 452.5 -187.5t188.5 -453.5t-188.5 -453.5t-452.5 -187.5q-266 0 -453.5 187.5t-187.5 453.5zM252 602q0 -213 150.5 -362.5t361.5 -149.5t361.5 149.5t150.5 362.5q0 211 -150.5 361.5t-361.5 150.5t-361.5 -150.5 t-150.5 -361.5zM434 592q0 147 100.5 256.5t241.5 109.5q131 0 246 -110q51 -66 51 -88q0 -25 -18.5 -43.5t-44.5 -18.5q-41 0 -76 54l-8 8q-59 70 -150 69q-88 0 -150.5 -71.5t-62.5 -165.5q0 -92 62.5 -165t150.5 -73t150 68l8 12v-2q35 61 80 62q27 0 44 -18.5t17 -45.5 q0 -33 -53 -92q-106 -113 -246 -113q-141 0 -241.5 111t-100.5 256z" />
<glyph unicode="&#xaa;" horiz-adv-x="763" d="M106 956q0 109 75 192t184 83q78 0 139 -43q14 33 59 33q25 0 45.5 -18.5t20.5 -45.5v-401q0 -25 -20.5 -45.5t-45.5 -20.5q-45 0 -59 35q-63 -45 -139 -45q-109 0 -184 82.5t-75 193.5zM236 956q0 -57 36.5 -102t92.5 -45q57 0 94 45t37 102q0 59 -37 103.5t-94 44.5 q-55 0 -92 -44.5t-37 -103.5z" />
<glyph unicode="&#xab;" horiz-adv-x="681" d="M102 336v8q0 16 4 27l136 286l-2 -2q20 43 61 43q25 0 44.5 -20.5t19.5 -44.5q0 -23 -107 -246l-22 -47l24 -53v2q104 -225 105 -242q0 -27 -19.5 -45t-44.5 -18q-45 0 -61 39l2 -3l-136 289v-2q-4 13 -4 29zM293 336v8q0 16 6 27l135 286l-2 -2q16 43 60 43 q25 0 45 -20.5t20 -44.5q0 -29 -108 -246l-23 -47l25 -53v2q106 -229 106 -242q0 -27 -20.5 -45t-44.5 -18q-47 0 -60 39l2 -3l-135 289v-2q-6 13 -6 29z" />
<glyph unicode="&#xac;" horiz-adv-x="843" d="M109 709q0 33 26 53l164 112l-164 109q-27 20 -26 53q0 27 18 46.5t45 19.5q23 0 172 -105v148q0 27 18.5 46t45 19t46 -19.5t19.5 -45.5v-156q133 100 166 101q29 0 47.5 -18.5t18.5 -45.5q0 -33 -29 -55l-146 -99l79 -53q50 -35 67 -45q29 -23 29 -53 q0 -29 -18.5 -47.5t-47.5 -18.5q-27 0 -166 101v-154q0 -29 -19.5 -47t-46 -18t-45 19t-18.5 46v146q-145 -102 -172 -102.5t-45 18t-18 45.5z" />
<glyph unicode="&#xad;" horiz-adv-x="743" d="M106 653q0 27 19.5 45.5t46.5 18.5h375q27 0 44 -18.5t17 -45.5q0 -25 -18.5 -45t-42.5 -20h-375q-27 0 -46.5 20t-19.5 45z" />
<glyph unicode="&#xae;" horiz-adv-x="1585" d="M123 604q0 266 187.5 453.5t453.5 187.5q264 0 452.5 -187.5t188.5 -453.5q0 -264 -188.5 -452.5t-452.5 -188.5q-266 0 -453.5 188.5t-187.5 452.5zM252 604q0 -211 150.5 -361.5t361.5 -150.5t361.5 150.5t150.5 361.5t-150.5 361.5t-361.5 150.5t-361.5 -150.5 t-150.5 -361.5zM537 313v580q0 25 18 45t43 20h174q102 0 190.5 -59t88.5 -162q0 -59 -41 -110.5t-99 -79.5l4 -6q147 -197 148 -228q0 -27 -19.5 -45t-46.5 -18q-35 0 -51 26v-2l-172 242h-106h-4v-203q0 -27 -18.5 -46t-47.5 -19q-27 0 -44 18t-17 47zM664 645h108 q53 0 101.5 24.5t48.5 67.5t-48.5 67.5t-101.5 24.5h-108v-184z" />
<glyph unicode="&#xaf;" horiz-adv-x="843" d="M109 709q0 33 26 53l164 112l-164 109q-27 20 -26 53q0 27 18 46.5t45 19.5q23 0 172 -105v148q0 27 18.5 46t45 19t46 -19.5t19.5 -45.5v-156q133 100 166 101q29 0 47.5 -18.5t18.5 -45.5q0 -33 -29 -55l-146 -99l79 -53q50 -35 67 -45q29 -23 29 -53 q0 -29 -18.5 -47.5t-47.5 -18.5q-27 0 -166 101v-154q0 -29 -19.5 -47t-46 -18t-45 19t-18.5 46v146q-145 -102 -172 -102.5t-45 18t-18 45.5z" />
<glyph unicode="&#xb0;" horiz-adv-x="661" d="M104 1020q0 90 62.5 152.5t152.5 62.5q88 0 150.5 -63.5t62.5 -151.5t-62 -150.5t-150.5 -62.5t-152 62.5t-63.5 150.5zM221 1020q0 -41 29 -69.5t69 -28.5q39 0 68 28.5t29 69.5t-29 69.5t-68 28.5q-41 0 -69.5 -28.5t-28.5 -69.5z" />
<glyph unicode="&#xb1;" horiz-adv-x="843" d="M109 709q0 33 26 53l164 112l-164 109q-27 20 -26 53q0 27 18 46.5t45 19.5q23 0 172 -105v148q0 27 18.5 46t45 19t46 -19.5t19.5 -45.5v-156q133 100 166 101q29 0 47.5 -18.5t18.5 -45.5q0 -33 -29 -55l-146 -99l79 -53q50 -35 67 -45q29 -23 29 -53 q0 -29 -18.5 -47.5t-47.5 -18.5q-27 0 -166 101v-154q0 -29 -19.5 -47t-46 -18t-45 19t-18.5 46v146q-145 -102 -172 -102.5t-45 18t-18 45.5z" />
<glyph unicode="&#xb2;" horiz-adv-x="661" d="M104 1008q0 88 62.5 151.5t150.5 63.5q90 0 152.5 -63.5t62.5 -153.5q0 -68 -29.5 -119t-59 -73.5t-87.5 -59.5q-80 -51 -102 -82h207q25 0 45 -20.5t20 -45t-20.5 -44t-44.5 -19.5h-289l-25 2l-20 16l-18 19l-3 26q0 68 30 119t60.5 75.5t86.5 57.5h-2q41 25 62.5 40 t40.5 45t19 64.5t-24.5 60.5t-61.5 26q-35 0 -59.5 -26t-24.5 -60q0 -25 -18 -45.5t-45 -20.5t-46.5 20.5t-19.5 45.5z" />
<glyph unicode="&#xb3;" horiz-adv-x="684" d="M106 741q0 29 18.5 47.5t45.5 18.5t46.5 -18.5t19.5 -47.5q0 -37 28.5 -62.5t65.5 -25.5q39 0 66.5 26t27.5 62q0 39 -27.5 64.5t-66.5 25.5q-27 0 -46.5 18.5t-19.5 47.5q0 25 19.5 44.5t46.5 19.5q33 0 57.5 19t24.5 50q0 29 -25 47.5t-57.5 18.5t-57 -18.5 t-24.5 -47.5q0 -27 -18.5 -46t-45.5 -19q-25 0 -45 19.5t-20 45.5q0 84 63.5 139.5t147.5 55.5t147.5 -55.5t63.5 -139.5q0 -78 -54 -131q66 -74 66 -158q0 -90 -65.5 -153.5t-157.5 -63.5t-158 63.5t-66 153.5z" />
<glyph unicode="&#xb4;" horiz-adv-x="530" d="M102 1063q0 27 27 41l178 131q25 20 55 20q27 0 48.5 -15t21.5 -35.5t-20 -35.5l-191 -139q-20 -18 -49 -18t-49.5 16.5t-20.5 34.5z" />
<glyph unicode="&#xb5;" horiz-adv-x="843" d="M109 709q0 33 26 53l164 112l-164 109q-27 20 -26 53q0 27 18 46.5t45 19.5q23 0 172 -105v148q0 27 18.5 46t45 19t46 -19.5t19.5 -45.5v-156q133 100 166 101q29 0 47.5 -18.5t18.5 -45.5q0 -33 -29 -55l-146 -99l79 -53q50 -35 67 -45q29 -23 29 -53 q0 -29 -18.5 -47.5t-47.5 -18.5q-27 0 -166 101v-154q0 -29 -19.5 -47t-46 -18t-45 19t-18.5 46v146q-145 -102 -172 -102.5t-45 18t-18 45.5z" />
<glyph unicode="&#x3bc;" horiz-adv-x="843" d="M109 709q0 33 26 53l164 112l-164 109q-27 20 -26 53q0 27 18 46.5t45 19.5q23 0 172 -105v148q0 27 18.5 46t45 19t46 -19.5t19.5 -45.5v-156q133 100 166 101q29 0 47.5 -18.5t18.5 -45.5q0 -33 -29 -55l-146 -99l79 -53q50 -35 67 -45q29 -23 29 -53 q0 -29 -18.5 -47.5t-47.5 -18.5q-27 0 -166 101v-154q0 -29 -19.5 -47t-46 -18t-45 19t-18.5 46v146q-145 -102 -172 -102.5t-45 18t-18 45.5z" />
<glyph unicode="&#xb6;" horiz-adv-x="1218" d="M115 870.5q0 141.5 100 241.5t242 100h536q27 0 46.5 -18t19.5 -47q0 -66 -94 -66v-1409q0 -25 -19.5 -45t-44.5 -20q-27 0 -46 20.5t-19 44.5v1411h-213v-1411q0 -25 -18.5 -45t-45.5 -20t-45 20.5t-18 44.5v856h-39q-141 0 -241.5 100.5t-100.5 242zM244 870 q0 -88 62.5 -150.5t150.5 -62.5h39v426h-39q-88 0 -150.5 -62.5t-62.5 -150.5z" />
<glyph unicode="&#xb7;" horiz-adv-x="376" d="M100 559q0 33 23.5 56.5t58.5 23.5q31 0 55.5 -23.5t24.5 -56.5t-24.5 -57.5t-55.5 -24.5q-35 0 -58.5 23.5t-23.5 58.5z" />
<glyph unicode="&#xb8;" horiz-adv-x="501" d="M121 -188q0 2 31 194q6 29 36 29q16 0 27.5 -10.5t11.5 -26.5q0 -20 -8 -61t-10 -56q57 29 100 29q45 0 71 -31t26 -76q0 -78 -78 -157.5t-154 -79.5q-14 0 -24.5 12t-10.5 29q0 29 35 33q51 10 103.5 61t52.5 102q0 31 -23 31q-31 0 -86 -31.5t-63 -31.5q-37 0 -37 41z " />
<glyph unicode="&#xb9;" horiz-adv-x="477" d="M102 1096q0 35 27 53l18 14l-2 -2q74 51 95 51q27 0 46 -18t19 -47v-481q53 -8 53 -64q0 -25 -20.5 -44t-44.5 -19h-105q-27 0 -45 18t-18 45q0 55 51 64v366h-10q-27 0 -45.5 19.5t-18.5 44.5z" />
<glyph unicode="&#xba;" horiz-adv-x="759" d="M106 954q0 109 75 193t184 84q111 0 185.5 -84t74.5 -193q0 -111 -75 -193.5t-185 -82.5q-109 0 -184 82.5t-75 193.5zM236 954q0 -57 36.5 -102t92.5 -45q57 0 94 45t37 102q0 59 -37 103.5t-94 44.5q-55 0 -92 -44.5t-37 -103.5z" />
<glyph unicode="&#xbb;" horiz-adv-x="681" d="M100 47q0 25 107 242v-2q4 12 12 27l12 24l-22 51v-2q-109 217 -109 246q0 25 19.5 45t44.5 20q41 0 61 -43l-2 2l135 -286q4 -10 4 -27v-8q0 -16 -4 -29v2l-135 -289l2 3q-16 -39 -61 -39q-25 0 -44.5 18t-19.5 45zM291 47q0 12 106 242v-2l13 23q8 15 12 28l-23 51v-2 q-109 227 -108 246q0 25 20.5 45t44.5 20q43 0 60 -43l-2 2l135 -286q6 -10 6 -27v-8q0 -16 -6 -29v2l-135 -289l2 3q-12 -39 -60 -39q-25 0 -45 18t-20 45z" />
<glyph unicode="&#xbc;" horiz-adv-x="1216" d="M115 1186q0 29 28 53l17 8q66 51 94 51q27 0 45 -18t18 -45v-481q53 -8 54 -64q0 -27 -19.5 -45t-44.5 -18h-104q-29 0 -47.5 18.5t-18.5 44.5q0 55 51 64v366h-8q-29 0 -47 19.5t-18 46.5zM188 41q0 16 94 214l234 491l174 362l35 72q14 37 57 37q27 0 45.5 -19.5 t18.5 -46.5t-518 -1104q-16 -39 -17 -37q-18 -33 -57 -33q-25 0 -45.5 18.5t-20.5 45.5zM621 352q0 39 34 223l13 58q4 23 21.5 38t42 15t45 -20.5t20.5 -42.5q0 -43 -33 -197q0 -4 -1 -4t-1 2t0 -6h96v205q0 25 19.5 44t46.5 19q25 0 44 -19.5t19 -43.5v-205q70 0 70 -66 q0 -61 -70 -65v-224q0 -27 -18.5 -46t-45 -19t-46 19.5t-19.5 45.5v226h-174q-27 0 -45 18t-18 45z" />
<glyph unicode="&#xbd;" horiz-adv-x="1247" d="M117 1186q0 31 28 53l7 2q6 4 8 6q66 51 94 51q27 0 46 -18t19 -45v-481q53 -8 54 -64q0 -27 -20.5 -45t-45.5 -18h-104q-27 0 -45.5 18.5t-18.5 44.5q0 55 51 64v366h-10q-27 0 -45 19.5t-18 46.5zM190 41q0 16 92 211l236 498l172 358l35 72q14 37 59 37 q25 0 43.5 -19.5t18.5 -46.5t-518 -1104l-17 -37q-18 -33 -57 -33q-25 0 -44.5 18.5t-19.5 45.5zM657 463q0 88 63.5 151.5t152 63.5t150.5 -63.5t62 -153.5q0 -66 -29.5 -118t-60 -75.5t-84.5 -56.5q-72 -45 -100 -84h205q27 0 45 -18.5t18 -45t-18.5 -46t-44.5 -19.5h-295 l-10 2h-11l-18 16l-18 21l-5 26q0 66 30 118t59.5 76t87.5 58q59 35 89.5 67t30.5 81q0 35 -24.5 61.5t-59 26.5t-60.5 -26.5t-26 -61.5q0 -25 -18 -45.5t-45 -20.5q-25 0 -45.5 20.5t-20.5 45.5z" />
<glyph unicode="&#xbe;" horiz-adv-x="1400" d="M119 741q0 29 18.5 47.5t46.5 18.5q27 0 45.5 -19.5t18.5 -46.5q0 -37 28.5 -62.5t65.5 -25.5q39 0 67.5 26t28.5 62q0 39 -28.5 64.5t-67.5 25.5q-27 0 -45 19.5t-18 46.5t18 45.5t45 18.5q33 0 57.5 19t24.5 50q0 29 -24.5 48.5t-57.5 19.5q-31 0 -56.5 -19.5 t-25.5 -48.5t-18.5 -47t-44.5 -18q-25 0 -44.5 19.5t-19.5 45.5q0 84 63.5 140.5t145.5 56.5q84 0 147.5 -56.5t63.5 -140.5q0 -80 -53 -131q68 -72 67 -158q0 -90 -66.5 -153.5t-158.5 -63.5t-157.5 63.5t-65.5 153.5zM365 41q0 14 200 439l318 665l18 39q14 33 55 33 q25 0 45.5 -19.5t20.5 -46.5q0 -20 -502 -1065l-33 -74q-18 -35 -59 -35q-27 0 -45 18.5t-18 45.5zM795 352q0 39 34 223l13 58q4 23 21.5 38t41.5 15q27 0 46.5 -19.5t19.5 -43.5q0 -43 -33 -197v-2l-2 -6h96v205q0 23 20.5 43t45 20t44 -19.5t19.5 -43.5v-205q70 0 70 -66 q0 -61 -70 -65v-224q0 -27 -18.5 -46t-44.5 -19q-25 0 -45.5 19.5t-20.5 45.5v226h-174q-25 0 -44 18t-19 45z" />
<glyph unicode="&#xbf;" horiz-adv-x="987" d="M111 -10q0 82 33.5 147.5t70.5 99t111 89.5l24 20q63 49 89 103.5t26 140.5q0 27 2 41t17.5 29.5t43.5 15.5q41 0 52.5 -20.5t11.5 -57.5v-14q0 -115 -38 -193t-126 -147q-31 -25 -33 -27q-53 -41 -79.5 -63.5t-51 -67.5t-24.5 -96q0 -94 65.5 -152.5t163.5 -58.5 q106 0 174 59.5t68 159.5q0 70 61 70q29 0 48.5 -17.5t19.5 -44.5q0 -160 -103.5 -258t-267.5 -98q-152 0 -255 94t-103 246zM451 823.5q0 32.5 24.5 57t56.5 24.5q31 0 56.5 -24.5t25.5 -57t-25.5 -56.5t-56.5 -24q-33 0 -57 24t-24 56.5z" />
<glyph unicode="&#xc0;" horiz-adv-x="1126" d="M102 51q0 29 381 1172q12 45 64 45q49 0 63 -45q2 -12 16 -53l39 -118l46 -141q281 -838 280 -860q0 -25 -20.5 -45t-44.5 -20q-49 0 -64 47l-135 416h-360l-71 -213l-67 -203q-16 -47 -61 -47q-27 0 -46.5 20t-19.5 45zM354 1474.5q0 20.5 21.5 36t48.5 15.5 q31 0 55 -21l178 -131q27 -14 27 -41q0 -18 -20.5 -34.5t-49 -16.5t-49.5 18l-190 140q-21 14 -21 34.5zM410 580h272l-135 419z" />
<glyph unicode="&#xc1;" horiz-adv-x="1126" d="M102 51q0 29 381 1172q12 45 64 45q49 0 63 -45q2 -12 16 -53l39 -118l46 -141q281 -838 280 -860q0 -25 -20.5 -45t-44.5 -20q-49 0 -64 47l-135 416h-360l-71 -213l-67 -203q-16 -47 -61 -47q-27 0 -46.5 20t-19.5 45zM379 1339q0 29 27 41l178 131q25 20 55 21 q27 0 48.5 -15.5t21.5 -36t-21 -34.5l-190 -139q-23 -18 -49 -19q-29 0 -49.5 16.5t-20.5 34.5zM410 580h272l-135 419z" />
<glyph unicode="&#xc2;" horiz-adv-x="1126" d="M102 51q0 29 381 1172q12 45 64 45q49 0 63 -45q2 -12 16 -53l39 -118l46 -141q281 -838 280 -860q0 -25 -20.5 -45t-44.5 -20q-49 0 -64 47l-135 416h-360l-71 -213l-67 -203q-16 -47 -61 -47q-27 0 -46.5 20t-19.5 45zM373 1337q0 16 98 127l23 23q20 20 51 20 q33 0 53 -20l25 -27q96 -102 96 -123q0 -18 -19.5 -32.5t-44.5 -14.5q-35 0 -57 23l-53 63l-58 -63q-16 -23 -51 -23q-27 0 -45 14.5t-18 32.5zM410 580h272l-135 419z" />
<glyph unicode="&#xc3;" horiz-adv-x="1126" d="M102 51q0 29 381 1172q12 45 64 45q49 0 63 -45q2 -12 16 -53l39 -118l46 -141q281 -838 280 -860q0 -25 -20.5 -45t-44.5 -20q-49 0 -64 47l-135 416h-360l-71 -213l-67 -203q-16 -47 -61 -47q-27 0 -46.5 20t-19.5 45zM346 1343q0 57 31 105.5t100 48.5 q31 0 56.5 -13.5t37 -24.5t31.5 -38q27 -31 29 -30q-4 0 2 51v4q0 51 59 51q23 0 42.5 -14.5t19.5 -34.5q0 -158 -127 -158q-33 0 -59.5 14.5t-38 26.5t-29.5 37q-23 29 -25 29l-8 -56q-6 -45 -61 -45q-25 0 -42.5 14.5t-17.5 32.5zM410 580h272l-135 419z" />
<glyph unicode="&#xc4;" horiz-adv-x="1126" d="M102 51q0 29 381 1172q12 45 64 45q49 0 63 -45q2 -12 16 -53l39 -118l46 -141q281 -838 280 -860q0 -25 -20.5 -45t-44.5 -20q-49 0 -64 47l-135 416h-360l-71 -213l-67 -203q-16 -47 -61 -47q-27 0 -46.5 20t-19.5 45zM381 1343q0 31 24.5 56.5t57.5 25.5t58.5 -25.5 t25.5 -56.5q0 -35 -25.5 -59t-58.5 -24q-35 0 -58.5 24t-23.5 59zM410 580h272l-135 419zM559 1343q0 31 25.5 56.5t58.5 25.5t57.5 -25.5t24.5 -56.5q0 -35 -23.5 -59t-58.5 -24q-33 0 -58.5 24t-25.5 59z" />
<glyph unicode="&#xc5;" horiz-adv-x="1126" d="M102 51q0 10 157 490l214 651q-47 20 -76.5 64t-29.5 98q0 74 51 125t125 51q72 0 123 -51.5t51 -124.5q0 -51 -27.5 -94t-73.5 -64l95 -285q281 -838 280 -860q0 -25 -20.5 -45t-44.5 -20q-49 0 -64 47l-135 416h-360l-71 -213l-67 -203q-16 -47 -61 -47q-27 0 -46.5 20 t-19.5 45zM410 580h272l-135 419zM463 1353.5q0 -32.5 23.5 -56t56 -23.5t55.5 23.5t23 56t-23 56.5t-55.5 24t-56 -24t-23.5 -56.5z" />
<glyph unicode="&#xc6;" horiz-adv-x="843" d="M106 719q0 31 27 55l166 113l-166 110q-27 20 -27 56q0 29 18.5 47t47.5 18t174 -106v149q0 27 19.5 46.5t46 19.5t46 -19.5t19.5 -46.5v-157q139 102 168 102q27 0 46.5 -18.5t19.5 -47.5q0 -35 -29 -55l-145 -100l145 -101q29 -16 29 -53q0 -27 -19.5 -46t-46.5 -19 q-29 0 -168 102v-158q0 -29 -19.5 -47t-46 -18t-46 18.5t-19.5 46.5v148q-150 -104 -174 -105q-29 0 -47.5 19.5t-18.5 46.5z" />
<glyph unicode="&#xc7;" horiz-adv-x="1042" d="M100 625q0 174 64.5 341t191.5 255q90 55 181 55q92 0 175 -58.5t142 -142.5q57 -82 57 -123q0 -27 -20.5 -46t-44.5 -19q-43 0 -62 39q-102 219 -247 219q-53 0 -107 -37q-100 -66 -149.5 -203t-49.5 -280q0 -133 52.5 -272.5t146.5 -209.5q53 -35 107 -34 q145 0 247 219q18 37 62 37q25 0 45 -19.5t20 -44.5q0 -35 -57 -125q-57 -84 -139 -140t-176 -59q-2 -14 -8.5 -50t-8.5 -50q57 29 101 29q45 0 70.5 -31t25.5 -76q0 -78 -78 -157.5t-154 -79.5q-14 0 -24 12t-10 29q0 29 34 32q51 10 103.5 61.5t52.5 102.5q0 31 -22 31 q-31 0 -86.5 -31.5t-63.5 -31.5q-37 0 -37 40q0 29 29 179q-61 16 -107 47q-129 84 -192.5 252t-63.5 340z" />
<glyph unicode="&#xc8;" horiz-adv-x="882" d="M109 59v1129q0 25 19 45t46 20h518q27 0 46.5 -20.5t19.5 -44.5q0 -29 -18.5 -47.5t-47.5 -18.5h-452v-389h282q27 0 46.5 -20.5t19.5 -44.5q0 -27 -19.5 -46.5t-46.5 -19.5h-282v-477h452q29 0 47.5 -19.5t18.5 -46.5q0 -25 -19.5 -45t-46.5 -20h-518q-27 0 -46 20 t-19 45zM254 1470.5q0 20.5 21.5 36t48.5 15.5q31 0 55 -21l178 -131q27 -14 27 -41q0 -18 -20.5 -34.5t-49.5 -16.5q-27 0 -49 18l-191 140q-20 14 -20 34.5z" />
<glyph unicode="&#xc9;" horiz-adv-x="882" d="M109 59v1129q0 25 19 45t46 20h518q27 0 46.5 -20.5t19.5 -44.5q0 -29 -18.5 -47.5t-47.5 -18.5h-452v-389h282q27 0 46.5 -20.5t19.5 -44.5q0 -27 -19.5 -46.5t-46.5 -19.5h-282v-477h452q29 0 47.5 -19.5t18.5 -46.5q0 -25 -19.5 -45t-46.5 -20h-518q-27 0 -46 20 t-19 45zM305 1339q0 29 27 41l178 131q25 20 55 21q27 0 48.5 -15.5t21.5 -36t-21 -34.5l-190 -139q-23 -18 -49 -19q-29 0 -49.5 16.5t-20.5 34.5z" />
<glyph unicode="&#xca;" horiz-adv-x="882" d="M109 59v1129q0 25 19 45t46 20h518q27 0 46.5 -20.5t19.5 -44.5q0 -29 -18.5 -47.5t-47.5 -18.5h-452v-389h282q27 0 46.5 -20.5t19.5 -44.5q0 -27 -19.5 -46.5t-46.5 -19.5h-282v-477h452q29 0 47.5 -19.5t18.5 -46.5q0 -25 -19.5 -45t-46.5 -20h-518q-27 0 -46 20 t-19 45zM254 1362q0 16 98 127l23 22q20 20 51 21q33 0 53 -21l25 -26q96 -102 96 -123q0 -18 -19.5 -32.5t-43.5 -14.5q-35 0 -58 22l-53 64l-57 -64q-16 -23 -52 -22q-27 0 -45 14.5t-18 32.5z" />
<glyph unicode="&#xcb;" horiz-adv-x="882" d="M109 59v1129q0 25 19 45t46 20h518q27 0 46.5 -20.5t19.5 -44.5q0 -29 -18.5 -47.5t-47.5 -18.5h-452v-389h282q27 0 46.5 -20.5t19.5 -44.5q0 -27 -19.5 -46.5t-46.5 -19.5h-282v-477h452q29 0 47.5 -19.5t18.5 -46.5q0 -25 -19.5 -45t-46.5 -20h-518q-27 0 -46 20 t-19 45zM262 1384.5q0 32.5 24.5 57t57.5 24.5t58.5 -24.5t25.5 -57t-25.5 -57t-58.5 -24.5t-57.5 24.5t-24.5 57zM440 1384.5q0 32.5 26 57t58.5 24.5t57 -24.5t24.5 -57t-24.5 -57t-57 -24.5t-58.5 24.5t-26 57z" />
<glyph unicode="&#xcc;" horiz-adv-x="544" d="M86 1468.5q0 20.5 21.5 36t48.5 15.5q31 0 55 -21l178 -131q27 -12 27 -41q0 -18 -20.5 -34.5t-49.5 -16.5q-27 0 -49 18l-191 140q-20 14 -20 34.5zM92 72q0 27 19.5 46t46.5 19h41v971h-41q-27 0 -46.5 19.5t-19.5 46.5q0 25 19.5 45t46.5 20h213q25 0 45 -20.5 t20 -44.5q0 -27 -20.5 -46.5t-44.5 -19.5h-41v-971h41q25 0 45 -19.5t20 -45.5q0 -25 -20.5 -45.5t-44.5 -20.5h-213q-27 0 -46.5 20.5t-19.5 45.5z" />
<glyph unicode="&#xcd;" horiz-adv-x="544" d="M92 72q0 27 19.5 46t46.5 19h41v971h-41q-27 0 -46.5 19.5t-19.5 46.5q0 25 19.5 45t46.5 20h213q25 0 45 -20.5t20 -44.5q0 -27 -20.5 -46.5t-44.5 -19.5h-41v-971h41q25 0 45 -19.5t20 -45.5q0 -25 -20.5 -45.5t-44.5 -20.5h-213q-27 0 -46.5 20.5t-19.5 45.5z M119 1317q0 27 26 41l179 131q25 20 55 20q27 0 48.5 -15t21.5 -35.5t-21 -35.5l-190 -139q-20 -18 -49 -18t-49.5 16.5t-20.5 34.5z" />
<glyph unicode="&#xce;" horiz-adv-x="544" d="M92 72q0 27 19.5 46t46.5 19h41v971h-41q-27 0 -46.5 19.5t-19.5 46.5q0 25 19.5 45t46.5 20h213q25 0 45 -20.5t20 -44.5q0 -27 -20.5 -46.5t-44.5 -19.5h-41v-971h41q25 0 45 -19.5t20 -45.5q0 -25 -20.5 -45.5t-44.5 -20.5h-213q-27 0 -46.5 20.5t-19.5 45.5zM94 1331 q0 16 99 127l22 23q20 20 51 20q33 0 53 -20l25 -27q96 -102 96 -123q0 -18 -19.5 -32.5t-43.5 -14.5q-35 0 -58 23l-53 63l-57 -63q-16 -23 -51 -23q-27 0 -45.5 14.5t-18.5 32.5z" />
<glyph unicode="&#xcf;" horiz-adv-x="544" d="M86 1370q0 33 23.5 57.5t58.5 24.5q33 0 57.5 -25.5t24.5 -56.5q0 -35 -24.5 -59.5t-57.5 -24.5q-35 0 -58.5 24.5t-23.5 59.5zM92 72q0 27 19.5 46t46.5 19h41v971h-41q-27 0 -46.5 19.5t-19.5 46.5q0 25 19.5 45t46.5 20h213q25 0 44 -20.5t19 -44.5q0 -27 -19.5 -46.5 t-43.5 -19.5h-41v-971h41q25 0 44 -19.5t19 -45.5q0 -25 -19.5 -45.5t-43.5 -20.5h-213q-27 0 -46.5 20.5t-19.5 45.5zM264 1370q0 31 25.5 56.5t56.5 25.5q35 0 59.5 -25.5t24.5 -56.5q0 -35 -24.5 -59.5t-59.5 -24.5q-31 0 -56.5 24.5t-25.5 59.5z" />
<glyph unicode="&#xd0;" horiz-adv-x="1101" d="M111 664q0 70 90 65v453q0 27 21.5 47t45.5 20h277q141 0 238.5 -115.5t142.5 -267.5q33 -123 32 -248q0 -123 -32 -245q-45 -152 -142.5 -267.5t-238.5 -115.5h-254q-12 -4 -25 -4q-25 0 -45 20.5t-20 44.5v545q-90 0 -90 68zM332 121h213q94 0 159.5 88t94.5 199 q29 94 28.5 210.5t-28.5 210.5q-29 111 -95.5 200t-158.5 89h-213v-389h176q29 0 47 -18.5t18 -46.5q0 -25 -19 -45.5t-46 -20.5h-176v-477z" />
<glyph unicode="&#xd1;" horiz-adv-x="937" d="M109 53v1137q0 25 19 44t46 19q39 0 57 -34l439 -881v854q0 29 19.5 47t46 18t46 -18t19.5 -47v-1135q0 -25 -19.5 -45t-46.5 -20q-35 0 -57 37l-438 878v-854q0 -29 -19.5 -47t-46.5 -18t-46 18t-19 47zM252 1333q0 57 30.5 105.5t100.5 48.5q31 0 56.5 -13.5 t36.5 -24.5t32 -38q27 -31 29 -31q-4 0 2 52v4q0 51 59 51q23 0 42 -14.5t19 -34.5q0 -158 -127 -158q-33 0 -59.5 14.5t-37.5 26.5t-29 37q-20 29 -25 28l-8 -55q-6 -45 -62 -45q-25 0 -42 14.5t-17 32.5z" />
<glyph unicode="&#xd2;" horiz-adv-x="1110" d="M102 625q0 174 62.5 341t191.5 253q88 55 183 55q96 0 180 -55q129 -86 192.5 -253t63.5 -341q0 -172 -64.5 -340t-191.5 -254q-84 -55 -180 -56q-94 0 -183 56q-127 86 -190.5 254t-63.5 340zM231 625q0 -141 49.5 -279.5t149.5 -204.5q47 -35 109 -35q59 0 106 35 q100 66 149.5 203t49.5 281q0 133 -52.5 273t-146.5 210q-57 35 -106 35q-51 0 -109 -35q-94 -70 -146.5 -210t-52.5 -273zM356 1480.5q0 20.5 21.5 36t48.5 15.5q31 0 55 -21l178 -131q27 -12 27 -41q0 -18 -20.5 -34.5t-49.5 -16.5q-27 0 -49 19l-190 139q-21 14 -21 34.5 z" />
<glyph unicode="&#xd3;" horiz-adv-x="1110" d="M102 625q0 174 62.5 341t191.5 253q88 55 183 55q96 0 180 -55q129 -86 192.5 -253t63.5 -341q0 -172 -64.5 -340t-191.5 -254q-84 -55 -180 -56q-94 0 -183 56q-127 86 -190.5 254t-63.5 340zM231 625q0 -141 49.5 -279.5t149.5 -204.5q47 -35 109 -35q59 0 106 35 q100 66 149.5 203t49.5 281q0 133 -52.5 273t-146.5 210q-57 35 -106 35q-51 0 -109 -35q-94 -70 -146.5 -210t-52.5 -273zM367 1337q0 27 26 41l178 131q25 20 56 21q27 0 48 -15.5t21 -36t-20 -34.5l-191 -139q-23 -18 -49 -19q-29 0 -49 16.5t-20 34.5z" />
<glyph unicode="&#xd4;" horiz-adv-x="1110" d="M102 625q0 174 62.5 341t191.5 253q88 55 183 55q96 0 180 -55q129 -86 192.5 -253t63.5 -341q0 -172 -64.5 -340t-191.5 -254q-84 -55 -180 -56q-94 0 -183 56q-127 86 -190.5 254t-63.5 340zM231 625q0 -141 49.5 -279.5t149.5 -204.5q47 -35 109 -35q59 0 106 35 q100 66 149.5 203t49.5 281q0 133 -52.5 273t-146.5 210q-57 35 -106 35q-51 0 -109 -35q-94 -70 -146.5 -210t-52.5 -273zM377 1343q0 16 98 127l23 23q20 20 51 20q33 0 53 -20l25 -27q96 -102 96 -123q0 -18 -19.5 -32.5t-44.5 -14.5q-35 0 -57 23l-53 63l-57 -63 q-16 -23 -52 -23q-27 0 -45 14.5t-18 32.5z" />
<glyph unicode="&#xd5;" horiz-adv-x="1110" d="M102 625q0 174 62.5 341t191.5 253q88 55 183 55q96 0 180 -55q129 -86 192.5 -253t63.5 -341q0 -172 -64.5 -340t-191.5 -254q-84 -55 -180 -56q-94 0 -183 56q-127 86 -190.5 254t-63.5 340zM231 625q0 -141 49.5 -279.5t149.5 -204.5q47 -35 109 -35q59 0 106 35 q100 66 149.5 203t49.5 281q0 133 -52.5 273t-146.5 210q-57 35 -106 35q-51 0 -109 -35q-94 -70 -146.5 -210t-52.5 -273zM336 1360q0 57 30.5 105t100.5 48q31 0 56.5 -13t36.5 -24.5t32 -37.5q27 -31 29 -31q-4 0 2 51v4q0 51 59 51q23 0 42 -14t19 -35q0 -158 -127 -157 q-33 0 -59.5 14t-37.5 26.5t-30 36.5q-20 29 -24 29l-8 -55q-6 -45 -62 -45q-25 0 -42 14.5t-17 32.5z" />
<glyph unicode="&#xd6;" horiz-adv-x="1110" d="M102 625q0 174 62.5 341t191.5 253q88 55 183 55q96 0 180 -55q129 -86 192.5 -253t63.5 -341q0 -172 -64.5 -340t-191.5 -254q-84 -55 -180 -56q-94 0 -183 56q-127 86 -190.5 254t-63.5 340zM231 625q0 -141 49.5 -279.5t149.5 -204.5q47 -35 109 -35q59 0 106 35 q100 66 149.5 203t49.5 281q0 133 -52.5 273t-146.5 210q-57 35 -106 35q-51 0 -109 -35q-94 -70 -146.5 -210t-52.5 -273zM362 1382q0 31 25 56.5t59 25.5q31 0 56.5 -25.5t25.5 -56.5q0 -35 -25.5 -59.5t-56.5 -24.5q-35 0 -59.5 24.5t-24.5 59.5zM543 1382 q0 31 24.5 56.5t57.5 25.5q35 0 59.5 -25.5t24.5 -56.5q0 -35 -25 -59.5t-59 -24.5q-33 0 -57.5 24.5t-24.5 59.5z" />
<glyph unicode="&#xd7;" horiz-adv-x="733" d="M107.5 457.5q-1.5 25.5 15.5 46.5l145 143l-143 141q-16 16 -17.5 43t15.5 48q18 18 45 19t47 -15l141 -146l144 144q18 18 44.5 18t43.5 -18q20 -20 19 -48t-21 -47l-137 -139l139 -141q20 -20 19 -47t-21 -45q-16 -16 -43 -15.5t-43 17.5l-144 141l-141 -143 q-20 -16 -47 -15.5t-43 17t-17.5 42z" />
<glyph unicode="&#xd8;" horiz-adv-x="1110" d="M102 625q0 174 62.5 341t191.5 253q88 55 183 55q70 0 147 -39q12 4 21 4q63 0 63 -63q102 -94 153.5 -247t51.5 -304q0 -172 -64.5 -340t-191.5 -254q-84 -55 -180 -56q-68 0 -121 25q-18 -23 -49 -23q-29 0 -47.5 19.5t-18.5 46.5q0 2 6 27q-104 94 -155.5 246.5 t-51.5 308.5zM231 625q0 -258 121 -410l271 907q-53 20 -84 21q-51 0 -109 -35q-94 -70 -146.5 -210t-52.5 -273zM459 123q33 -16 80 -17q59 0 106 35q100 66 149.5 203t49.5 281q0 248 -111 399q-35 -121 -250 -823z" />
<glyph unicode="&#xd9;" horiz-adv-x="1034" d="M111 344v850q0 25 19.5 45.5t46 20.5t46 -20.5t19.5 -45.5v-850q0 -113 71.5 -174t188.5 -61q119 0 189.5 60t70.5 175v850q0 25 20.5 45.5t44.5 20.5q27 0 46.5 -20.5t19.5 -45.5v-850q0 -174 -107.5 -270.5t-283.5 -96.5q-172 0 -281.5 98.5t-109.5 268.5zM338 1484.5 q0 20.5 21.5 36t48.5 15.5q31 0 55 -20l178 -132q27 -12 27 -41q0 -18 -20.5 -34.5t-49.5 -16.5t-49 19l-191 139q-20 14 -20 34.5z" />
<glyph unicode="&#xda;" horiz-adv-x="1034" d="M111 344v850q0 25 19.5 45.5t46 20.5t46 -20.5t19.5 -45.5v-850q0 -113 71.5 -174t188.5 -61q119 0 189.5 60t70.5 175v850q0 25 20.5 45.5t44.5 20.5q27 0 46.5 -20.5t19.5 -45.5v-850q0 -174 -107.5 -270.5t-283.5 -96.5q-172 0 -281.5 98.5t-109.5 268.5zM350 1333 q0 27 27 41l178 131q25 20 55 21q27 0 48.5 -15.5t21.5 -36t-21 -34.5l-190 -140q-23 -18 -49 -18q-29 0 -49.5 16.5t-20.5 34.5z" />
<glyph unicode="&#xdb;" horiz-adv-x="1034" d="M111 344v850q0 25 19.5 45.5t46 20.5t46 -20.5t19.5 -45.5v-850q0 -113 71.5 -174t188.5 -61q119 0 189.5 60t70.5 175v850q0 25 20.5 45.5t44.5 20.5q27 0 46.5 -20.5t19.5 -45.5v-850q0 -174 -107.5 -270.5t-283.5 -96.5q-172 0 -281.5 98.5t-109.5 268.5zM326 1339 q0 16 98 127l22 23q20 20 52 20q33 0 53 -20l24 -27q96 -102 97 -123q0 -18 -19.5 -32.5t-44.5 -14.5q-35 0 -57 23l-53 63l-58 -63q-16 -23 -51 -23q-27 0 -45 14.5t-18 32.5z" />
<glyph unicode="&#xdc;" horiz-adv-x="1034" d="M111 344v850q0 25 19.5 45.5t46 20.5t46 -20.5t19.5 -45.5v-850q0 -113 71.5 -174t188.5 -61q119 0 189.5 60t70.5 175v850q0 25 20.5 45.5t44.5 20.5q27 0 46.5 -20.5t19.5 -45.5v-850q0 -174 -107.5 -270.5t-283.5 -96.5q-172 0 -281.5 98.5t-109.5 268.5zM322 1343 q0 31 24.5 56.5t57 25.5t58 -25.5t25.5 -56.5q0 -35 -25.5 -59t-58.5 -24q-35 0 -58 24t-23 59zM500 1343q0 31 25.5 56.5t58 25.5t57.5 -25.5t25 -56.5q0 -35 -24 -59t-58 -24q-33 0 -58.5 24t-25.5 59z" />
<glyph unicode="&#xdd;" horiz-adv-x="978" d="M100 1188q0 25 19.5 45t46.5 20q37 0 57 -36l252 -472l250 467q16 41 59 41q27 0 46.5 -20.5t19.5 -44.5q0 -18 -258 -506l-51 -96v-529q0 -29 -18.5 -47t-47.5 -18t-47 18.5t-18 46.5v531l-9 14q-10 14 -14 23v-2q-287 528 -287 565zM332 1282q0 29 26 41l179 131 q25 20 55 21q27 0 48.5 -15.5t21.5 -36t-21 -34.5l-190 -140q-20 -18 -49 -18t-49.5 16.5t-20.5 34.5z" />
<glyph unicode="&#xde;" horiz-adv-x="929" d="M109 53v1135q0 27 19 46t46 19t46.5 -19.5t19.5 -45.5v-197h192q152 0 261.5 -109.5t109.5 -263.5q0 -152 -109.5 -260t-261.5 -108h-192v-197q0 -29 -19.5 -47t-46.5 -18t-46 18t-19 47zM240 381h192q98 0 169 70.5t71 166.5q0 100 -71 170t-169 70h-192v-477z" />
<glyph unicode="&#xdf;" horiz-adv-x="884" d="M111 51v961q0 104 67.5 158.5t173.5 54.5q117 0 201 -86t84 -205q0 -121 -125 -252v2q-12 -12 -16 -10q20 -35 159 -160q51 -47 78 -78v2q76 -86 76 -192q0 -115 -79 -198t-191 -83q-78 0 -158 44t-141 112v-70q0 -25 -19.5 -44t-46.5 -19q-23 0 -43 19t-20 44zM240 213 q25 20 45 20q25 0 65 -40q115 -98 189 -99q59 0 100 45t41 107q0 57 -45 102q-16 20 -78 78q-172 168 -186 213q-6 18 -6 35q0 41 63 108q80 94 80 152q0 66 -46 114t-110 48q-113 0 -112 -84v-799z" />
<glyph unicode="&#xe0;" d="M100 344q0 145 98.5 256t245.5 111q127 0 228 -90v14q0 25 18.5 45t45 20t46 -20.5t19.5 -44.5v-578q0 -29 -19.5 -47t-46 -18t-45 19.5t-18.5 45.5v9q-104 -90 -228 -91q-147 0 -245.5 111t-98.5 258zM229 344q0 -96 61.5 -168t154 -72t152.5 72t60 168t-60 167 t-152.5 71t-154 -72t-61.5 -166zM258 942.5q0 20.5 21.5 35.5t48.5 15q31 0 55 -20l178 -131q27 -14 27 -41q0 -18 -20.5 -34.5t-49.5 -16.5q-27 0 -49 18l-190 139q-21 15 -21 35.5z" />
<glyph unicode="&#xe1;" d="M100 344q0 145 98.5 256t245.5 111q127 0 228 -90v14q0 25 18.5 45t45 20t46 -20.5t19.5 -44.5v-578q0 -29 -19.5 -47t-46 -18t-45 19.5t-18.5 45.5v9q-104 -90 -228 -91q-147 0 -245.5 111t-98.5 258zM229 344q0 -96 61.5 -168t154 -72t152.5 72t60 168t-60 167 t-152.5 71t-154 -72t-61.5 -166zM291 788q0 27 26 41l179 132q25 20 55 20q27 0 48.5 -15.5t21.5 -36t-21 -34.5l-190 -139q-20 -18 -49 -18.5t-49.5 16t-20.5 34.5z" />
<glyph unicode="&#xe2;" d="M100 344q0 145 98.5 256t245.5 111q127 0 228 -90v14q0 25 18.5 45t45 20t46 -20.5t19.5 -44.5v-578q0 -29 -19.5 -47t-46 -18t-45 19.5t-18.5 45.5v9q-104 -90 -228 -91q-147 0 -245.5 111t-98.5 258zM229 344q0 -96 61.5 -168t154 -72t152.5 72t60 168t-60 167 t-152.5 71t-154 -72t-61.5 -166zM281 786q0 16 98 127l22 23q20 20 52 20q33 0 53 -20l24 -27q96 -102 97 -123q0 -18 -19.5 -32.5t-44.5 -14.5q-35 0 -57 23l-53 63l-58 -63q-16 -23 -51 -23q-27 0 -45 14.5t-18 32.5z" />
<glyph unicode="&#xe3;" d="M100 344q0 145 98.5 256t245.5 111q127 0 228 -90v14q0 25 18.5 45t45 20t46 -20.5t19.5 -44.5v-578q0 -29 -19.5 -47t-46 -18t-45 19.5t-18.5 45.5v9q-104 -90 -228 -91q-147 0 -245.5 111t-98.5 258zM229 344q0 -96 61.5 -168t154 -72t152.5 72t60 168t-60 167 t-152.5 71t-154 -72t-61.5 -166zM242 793q0 57 30.5 105t100.5 48q31 0 56.5 -13t36.5 -24.5t32 -38.5q27 -31 28 -30q-4 0 2 51v4q0 51 60 51q23 0 42 -14t19 -35q0 -158 -127 -158q-33 0 -59.5 14.5t-37.5 27t-30 36.5q-23 29 -24 29l-9 -55q-6 -45 -61 -46q-25 0 -42 15 t-17 33z" />
<glyph unicode="&#xe4;" d="M100 344q0 145 98.5 256t245.5 111q127 0 228 -90v14q0 25 18.5 45t45 20t46 -20.5t19.5 -44.5v-578q0 -29 -19.5 -47t-46 -18t-45 19.5t-18.5 45.5v9q-104 -90 -228 -91q-147 0 -245.5 111t-98.5 258zM229 344q0 -96 61.5 -168t154 -72t152.5 72t60 168t-60 167 t-152.5 71t-154 -72t-61.5 -166zM272 823q0 33 23.5 57.5t58.5 24.5q31 0 56.5 -25.5t25.5 -56.5q0 -33 -25.5 -57.5t-56.5 -24.5q-35 0 -58.5 23.5t-23.5 58.5zM449 823q0 31 24.5 56.5t57 25.5t57 -25.5t24.5 -56.5q0 -33 -23.5 -57.5t-58.5 -24.5q-33 0 -57 24.5 t-24 57.5z" />
<glyph unicode="&#xe5;" d="M100 344q0 104 54.5 195.5t144.5 136.5q-39 49 -39 112q0 74 51 125.5t125 51.5q72 0 123 -51.5t51 -125.5q0 -55 -37 -106q49 -18 99 -61v14q0 25 18.5 45t45 20t46 -20.5t19.5 -44.5v-578q0 -29 -19.5 -47t-46 -18t-45 19.5t-18.5 45.5v9q-104 -90 -228 -91 q-147 0 -245.5 111t-98.5 258zM229 344q0 -96 61.5 -168t154 -72t152.5 72t60 168t-60 167t-152.5 71t-154 -72t-61.5 -166zM356 788q0 -29 17.5 -51t46.5 -28q8 2 24 2h11q25 6 42 28.5t17 48.5q0 33 -22.5 56.5t-55.5 23.5t-56.5 -23.5t-23.5 -56.5z" />
<glyph unicode="&#xe6;" horiz-adv-x="1527" d="M113 342q0 145 97 255t245 110q133 0 219 -84v6q0 25 19.5 45t43.5 20q27 0 46.5 -20.5t19.5 -44.5v-2q90 80 215 80q145 0 243.5 -110t98.5 -255q0 -27 -18.5 -46.5t-47.5 -19.5h-481q18 -74 74.5 -124t130.5 -50q119 0 186 95q20 31 53 30q27 0 45.5 -18.5t18.5 -44.5 q0 -12 -8 -33q-43 -74 -124 -116t-171 -42q-127 0 -215 82v-2q0 -29 -18.5 -47t-47.5 -18q-25 0 -44 19.5t-19 45.5v6q-92 -86 -219 -86q-147 0 -244.5 111t-97.5 258zM242 342q0 -96 60 -168t152.5 -72t154 72t61.5 168q0 94 -61.5 165t-153.5 71q-90 0 -151.5 -71 t-61.5 -165zM813 406h408q-18 74 -73.5 123t-129.5 49t-130.5 -49t-74.5 -123z" />
<glyph unicode="&#xe7;" horiz-adv-x="872" d="M100 344q0 145 98.5 256t243.5 111q143 0 248 -109q47 -39 47 -86q0 -29 -18.5 -47t-46.5 -18q-35 0 -49 22q-63 109 -181 109q-92 0 -152.5 -72t-60.5 -166q0 -96 60.5 -168t152.5 -72q51 0 100.5 28t71.5 71v-2q20 39 60 39q29 0 48 -19.5t19 -46.5q0 -18 -12 -35 q-47 -74 -120.5 -118t-159.5 -46q-2 -12 -8.5 -44.5t-8.5 -49.5q57 29 100 29q45 0 71 -31t26 -76q0 -78 -78 -157.5t-154 -79.5q-14 0 -24.5 12t-10.5 29q0 29 35 33q51 10 103.5 61t52.5 102q0 31 -23 31q-31 0 -86 -31.5t-63 -31.5q-37 0 -37 41q0 33 27 172 q-119 27 -195 129t-76 231z" />
<glyph unicode="&#xe8;" horiz-adv-x="923" d="M100 344q0 145 98.5 256t246 111t245.5 -111t98 -256q0 -27 -19 -46t-46 -19h-483q18 -76 73.5 -125.5t130.5 -49.5q119 0 187 95q25 31 53 30q27 0 46.5 -18t19.5 -45q0 -12 -11 -33q-43 -78 -122.5 -118t-172.5 -40q-147 0 -245.5 111t-98.5 258zM240 408h409 q-18 74 -74.5 124t-130.5 50q-72 0 -128 -50t-76 -124zM285 911.5q0 20.5 21.5 36t47.5 15.5q31 0 56 -21l178 -131q27 -12 26 -41q0 -18 -20.5 -34.5t-49 -16.5t-48.5 18l-191 140q-20 14 -20 34.5z" />
<glyph unicode="&#xe9;" horiz-adv-x="923" d="M100 344q0 145 98.5 256t246 111t245.5 -111t98 -256q0 -27 -19 -46t-46 -19h-483q18 -76 73.5 -125.5t130.5 -49.5q119 0 187 95q25 31 53 30q27 0 46.5 -18t19.5 -45q0 -12 -11 -33q-43 -78 -122.5 -118t-172.5 -40q-147 0 -245.5 111t-98.5 258zM240 408h409 q-18 74 -74.5 124t-130.5 50q-72 0 -128 -50t-76 -124zM258 774q0 29 27 41l178 131q25 20 55 21q27 0 48.5 -15.5t21.5 -36t-21 -34.5l-190 -140q-20 -18 -49 -18t-49.5 16.5t-20.5 34.5z" />
<glyph unicode="&#xea;" horiz-adv-x="923" d="M100 344q0 145 98.5 256t246 111t245.5 -111t98 -256q0 -27 -19 -46t-46 -19h-483q18 -76 73.5 -125.5t130.5 -49.5q119 0 187 95q25 31 53 30q27 0 46.5 -18t19.5 -45q0 -12 -11 -33q-43 -78 -122.5 -118t-172.5 -40q-147 0 -245.5 111t-98.5 258zM240 408h409 q-18 74 -74.5 124t-130.5 50q-72 0 -128 -50t-76 -124zM274 782q0 16 99 127l22 23q20 20 51 20q33 0 54 -20l24 -27q96 -102 97 -123q0 -18 -19.5 -32.5t-44.5 -14.5q-35 0 -57 23l-54 63l-57 -63q-16 -23 -51 -23q-27 0 -45.5 14.5t-18.5 32.5z" />
<glyph unicode="&#xeb;" horiz-adv-x="923" d="M100 344q0 145 98.5 256t246 111t245.5 -111t98 -256q0 -27 -19 -46t-46 -19h-483q18 -76 73.5 -125.5t130.5 -49.5q119 0 187 95q25 31 53 30q27 0 46.5 -18t19.5 -45q0 -12 -11 -33q-43 -78 -122.5 -118t-172.5 -40q-147 0 -245.5 111t-98.5 258zM240 408h409 q-18 74 -74.5 124t-130.5 50q-72 0 -128 -50t-76 -124zM270 819q0 33 23.5 57.5t58.5 24.5q31 0 55.5 -25.5t24.5 -56.5q0 -33 -24.5 -57.5t-55.5 -24.5q-35 0 -58.5 23.5t-23.5 58.5zM446 819q0 31 25 56.5t57.5 25.5t57 -25.5t24.5 -56.5q0 -33 -24.5 -57.5t-57 -24.5 t-57.5 24.5t-25 57.5z" />
<glyph unicode="&#xec;" horiz-adv-x="376" d="M29 901.5q0 20.5 21.5 35.5t47.5 15q31 0 56 -20l178 -131q27 -14 26 -41q0 -18 -20.5 -34.5t-48.5 -16.5q-27 0 -49 18l-191 139q-20 15 -20 35.5zM115 53v576q0 25 18.5 45t44.5 20q25 0 44.5 -20.5t19.5 -44.5v-576q0 -25 -19.5 -45t-44.5 -20q-27 0 -45 20t-18 45z " />
<glyph unicode="&#xed;" horiz-adv-x="376" d="M76 788q0 27 26 41l179 132q25 20 55 20q27 0 48.5 -15.5t21.5 -36t-21 -34.5l-190 -139q-23 -18 -50 -19q-29 0 -49 16.5t-20 34.5zM121 53v576q0 25 19.5 45t44 20t45 -20.5t20.5 -44.5v-576q0 -25 -20.5 -45t-45 -20t-44 20t-19.5 45z" />
<glyph unicode="&#xee;" horiz-adv-x="376" d="M8 770q0 16 98 127l23 23q20 20 51 20q33 0 53 -20l25 -27q96 -102 96 -123q0 -18 -19.5 -32.5t-43.5 -14.5q-35 0 -58 22l-53 64l-57 -64q-16 -23 -51 -22q-27 0 -45.5 14.5t-18.5 32.5zM117 53v576q0 25 19.5 45t45.5 20q23 0 43.5 -20.5t20.5 -44.5v-576 q0 -25 -20.5 -45t-43.5 -20q-27 0 -46 20t-19 45z" />
<glyph unicode="&#xef;" horiz-adv-x="376" d="M10 799q0 31 24.5 56.5t57.5 25.5t57.5 -26t24.5 -56q0 -33 -24.5 -57.5t-57.5 -24.5q-35 0 -58.5 24.5t-23.5 57.5zM117 53v576q0 25 19.5 45t44 20t45 -20.5t20.5 -44.5v-576q0 -25 -20.5 -45t-45 -20t-44 20t-19.5 45zM186 799q0 31 26 56.5t56 25.5q33 0 57.5 -26 t24.5 -56q0 -33 -23.5 -57.5t-58.5 -24.5q-31 0 -56.5 24.5t-25.5 57.5z" />
<glyph unicode="&#xf0;" horiz-adv-x="944" d="M111 342q0 145 97 255t245 110q117 0 204 -70q-33 223 -139 342q-127 -121 -158 -121q-27 0 -45 19.5t-18 46.5q0 31 121 137q-53 27 -113 37q-2 0 -12 1t-14 1q-25 0 -31 2q-59 8 -60 63q0 25 18.5 45.5t45.5 20.5q150 0 268 -80q76 76 109 76q25 0 44 -19.5t19 -44.5 q0 -41 -78 -100l33 -39q31 -39 67 -113.5t63.5 -223t21.5 -329.5q-4 -156 -101.5 -270.5t-245 -114.5t-244.5 109.5t-97 259.5zM240 342q0 -96 60 -168t153 -72q96 0 155.5 73t59.5 173q0 92 -61.5 161t-153.5 69q-90 0 -151.5 -71t-61.5 -165z" />
<glyph unicode="&#xf1;" horiz-adv-x="831" d="M109 55v580q0 27 18 46t45 19q25 0 43 -16t23 -39q82 68 182 68q129 0 205.5 -94.5t76.5 -223.5v-338q0 -27 -20 -46t-45 -19q-27 0 -45.5 19.5t-18.5 45.5v338q0 78 -39.5 133.5t-113.5 55.5q-94 0 -138 -75t-44 -190v-264q0 -27 -18.5 -46t-47.5 -19q-27 0 -45 19 t-18 46zM205 819q0 57 30.5 105.5t100.5 48.5q31 0 56.5 -13.5t36.5 -24.5t32 -38q27 -31 28 -31q-4 0 3 52v4q0 51 59 51q23 0 42 -14.5t19 -34.5q0 -158 -127 -158q-33 0 -59.5 14.5t-37.5 26.5t-30 37q-23 29 -24 28l-8 -55q-6 -45 -62 -45q-25 0 -42 14.5t-17 32.5z" />
<glyph unicode="&#xf2;" horiz-adv-x="923" d="M100 346q0 145 98.5 256t246 111t245.5 -110.5t98 -256.5q0 -147 -98 -258t-245.5 -111t-246 111t-98.5 258zM229 346q0 -96 61.5 -168t154 -72t152.5 72t60 168q0 94 -60 165t-152.5 71t-154 -71t-61.5 -165zM272 944.5q0 20.5 21.5 35.5t48.5 15q31 0 55 -20l178 -131 q27 -12 27 -41q0 -18 -20.5 -34.5t-49 -16.5t-49.5 18l-190 139q-21 15 -21 35.5z" />
<glyph unicode="&#xf3;" horiz-adv-x="923" d="M100 346q0 145 98.5 256t246 111t245.5 -110.5t98 -256.5q0 -147 -98 -258t-245.5 -111t-246 111t-98.5 258zM229 346q0 -96 61.5 -168t154 -72t152.5 72t60 168q0 94 -60 165t-152.5 71t-154 -71t-61.5 -165zM244 799q0 29 26 41l179 131q25 20 55 20q27 0 48 -15 t21 -35.5t-20 -35.5l-191 -139q-20 -18 -48.5 -18t-49 16.5t-20.5 34.5z" />
<glyph unicode="&#xf4;" horiz-adv-x="923" d="M100 346q0 145 98.5 256t246 111t245.5 -110.5t98 -256.5q0 -147 -98 -258t-245.5 -111t-246 111t-98.5 258zM229 346q0 -96 61.5 -168t154 -72t152.5 72t60 168q0 94 -60 165t-152.5 71t-154 -71t-61.5 -165zM274 793q0 16 99 127l22 22q20 20 51 21q33 0 54 -21l24 -27 q96 -102 97 -122q0 -18 -19.5 -33t-44.5 -15q-35 0 -57 23l-54 63l-57 -63q-16 -23 -51 -23q-27 0 -45.5 15t-18.5 33z" />
<glyph unicode="&#xf5;" horiz-adv-x="923" d="M100 346q0 145 98.5 256t246 111t245.5 -110.5t98 -256.5q0 -147 -98 -258t-245.5 -111t-246 111t-98.5 258zM229 346q0 -96 61.5 -168t154 -72t152.5 72t60 168q0 94 -60 165t-152.5 71t-154 -71t-61.5 -165zM240 797q0 57 30.5 105t100.5 48q31 0 56.5 -13t36.5 -24.5 t32 -38.5q27 -31 28 -30q-4 0 2 51v4q0 51 60 51q23 0 42 -14t19 -35q0 -158 -127 -158q-33 0 -59.5 14.5t-37.5 27t-30 36.5q-20 29 -24 29l-9 -55q-6 -45 -61 -45q-25 0 -42 14.5t-17 32.5z" />
<glyph unicode="&#xf6;" horiz-adv-x="923" d="M100 346q0 145 98.5 256t246 111t245.5 -110.5t98 -256.5q0 -147 -98 -258t-245.5 -111t-246 111t-98.5 258zM229 346q0 -96 61.5 -168t154 -72t152.5 72t60 168q0 94 -60 165t-152.5 71t-154 -71t-61.5 -165zM279 819q0 33 23.5 57.5t57.5 24.5q31 0 55.5 -25.5 t24.5 -56.5q0 -33 -24.5 -57.5t-55.5 -24.5q-35 0 -58 23.5t-23 58.5zM455 819q0 31 24.5 56.5t57 25.5t57 -25.5t24.5 -56.5q0 -33 -24.5 -57.5t-57 -24.5t-57 24.5t-24.5 57.5z" />
<glyph unicode="&#xf7;" horiz-adv-x="743" d="M106 653q0 27 19.5 45.5t46.5 18.5h375q27 0 44 -18.5t17 -45.5q0 -25 -18.5 -45t-42.5 -20h-375q-27 0 -46.5 20t-19.5 45zM276 492q0 31 25 56t57.5 25t57 -25.5t24.5 -55.5q0 -33 -24.5 -57.5t-57.5 -24.5q-35 0 -58.5 24.5t-23.5 57.5zM276 811q0 31 25 56.5 t57.5 25.5t57 -25.5t24.5 -56.5q0 -33 -24.5 -57.5t-57.5 -24.5q-35 0 -58.5 24.5t-23.5 57.5z" />
<glyph unicode="&#xf8;" horiz-adv-x="931" d="M100 346q0 145 98.5 256t245.5 111q100 0 183 -60q41 49 71 49q27 0 45.5 -19t18.5 -46q0 -33 -43 -76q68 -100 67 -215q0 -147 -97 -258t-245 -111q-98 0 -180 58q-43 -51 -74 -51q-27 0 -46 19.5t-19 43.5q0 27 43 78q-68 102 -68 221zM229 346q0 -55 29 -121l287 330 q-53 29 -101 29q-92 0 -153.5 -72t-61.5 -166zM346 133q49 -27 98 -27q92 0 152.5 72t60.5 168q0 63 -26 115z" />
<glyph unicode="&#xf9;" horiz-adv-x="831" d="M98 291v338q0 25 19.5 45t46.5 20q25 0 44 -20.5t19 -44.5v-338q0 -78 41 -134.5t113 -56.5q182 0 182 314v215q0 25 19.5 45t44 20t45 -20.5t20.5 -44.5v-580q0 -27 -20.5 -45t-45 -18t-43 17t-20.5 40q-82 -72 -182 -72q-131 0 -207 94.5t-76 225.5zM199 894.5 q0 20.5 21.5 36t47.5 15.5q31 0 56 -20l178 -131q27 -12 26 -41q0 -18 -20.5 -35t-49 -17t-48.5 19l-191 139q-20 14 -20 34.5z" />
<glyph unicode="&#xfa;" horiz-adv-x="831" d="M98 291v338q0 25 19.5 45t46.5 20q25 0 44 -20.5t19 -44.5v-338q0 -78 41 -134.5t113 -56.5q182 0 182 314v215q0 25 19.5 45t44 20t45 -20.5t20.5 -44.5v-580q0 -27 -20.5 -45t-45 -18t-43 17t-20.5 40q-82 -72 -182 -72q-131 0 -207 94.5t-76 225.5zM264 754 q0 29 27 41l178 131q25 20 55 20q27 0 48.5 -15.5t21.5 -36t-21 -34.5l-190 -139q-23 -18 -49 -19q-29 0 -49.5 17t-20.5 35z" />
<glyph unicode="&#xfb;" horiz-adv-x="831" d="M98 291v338q0 25 19.5 45t46.5 20q25 0 44 -20.5t19 -44.5v-338q0 -78 41 -134.5t113 -56.5q182 0 182 314v215q0 25 19.5 45t44 20t45 -20.5t20.5 -44.5v-580q0 -27 -20.5 -45t-45 -18t-43 17t-20.5 40q-82 -72 -182 -72q-131 0 -207 94.5t-76 225.5zM225 788 q0 16 99 127l22 23q20 20 51 20q33 0 54 -20l24 -27q96 -102 96 -123q0 -18 -19.5 -32.5t-43.5 -14.5q-35 0 -57 23l-54 63l-57 -63q-16 -23 -51 -23q-27 0 -45.5 14.5t-18.5 32.5z" />
<glyph unicode="&#xfc;" horiz-adv-x="831" d="M98 291v338q0 25 19.5 45t46.5 20q25 0 44 -20.5t19 -44.5v-338q0 -78 41 -134.5t113 -56.5q182 0 182 314v215q0 25 19.5 45t44 20t45 -20.5t20.5 -44.5v-580q0 -27 -20.5 -45t-45 -18t-43 17t-20.5 40q-82 -72 -182 -72q-131 0 -207 94.5t-76 225.5zM221 793 q0 31 24.5 56t57.5 25t57.5 -25.5t24.5 -55.5q0 -33 -24.5 -57.5t-57.5 -24.5t-57.5 23.5t-24.5 58.5zM397 793q0 31 26 56t56 25q33 0 57.5 -25.5t24.5 -55.5q0 -35 -24.5 -58.5t-57.5 -23.5q-31 0 -56.5 24.5t-25.5 57.5z" />
<glyph unicode="&#xfd;" horiz-adv-x="835" d="M98 635q0 29 18.5 47t47.5 18q39 0 59 -41l183 -442l174 440v-2q16 45 61 45q27 0 46.5 -18t19.5 -47q0 -10 -172.5 -456.5t-202.5 -518.5v2q-14 -41 -60 -41q-25 0 -45 20.5t-20 43.5q0 18 14.5 57t42 105.5t39.5 99.5q35 82 39 96q-39 88 -141.5 337t-102.5 255z M262 764q0 27 27 41l178 131q25 20 55 20q27 0 48.5 -15t21.5 -35.5t-21 -35.5l-190 -139q-20 -18 -49 -18t-49.5 16.5t-20.5 34.5z" />
<glyph unicode="&#xfe;" d="M111 -309v1464q0 27 18 45.5t45 18.5t46.5 -18.5t19.5 -45.5v-537q100 90 227 91q147 0 245.5 -111t98.5 -256q0 -147 -98.5 -258t-245.5 -111q-137 0 -227 90v-372q0 -25 -19.5 -44.5t-46.5 -19.5t-45 19.5t-18 44.5zM252 342q0 -96 61.5 -168t153.5 -72t153.5 73 t61.5 167t-61.5 166t-153.5 72t-153.5 -71t-61.5 -167z" />
<glyph unicode="&#xff;" horiz-adv-x="835" d="M98 635q0 29 18.5 47t47.5 18q39 0 59 -41l183 -442l174 440v-2q16 45 61 45q27 0 46.5 -18t19.5 -47q0 -10 -172.5 -456.5t-202.5 -518.5v2q-14 -41 -60 -41q-25 0 -45 20.5t-20 43.5q0 18 14.5 57t42 105.5t39.5 99.5q35 82 39 96q-39 88 -141.5 337t-102.5 255z M221 793q0 31 24.5 56t57.5 25t57.5 -25.5t24.5 -55.5q0 -33 -24.5 -57.5t-57.5 -24.5t-57.5 23.5t-24.5 58.5zM399 793q0 31 25 56t55 25q35 0 58.5 -24.5t23.5 -56.5q0 -35 -23.5 -58.5t-58.5 -23.5q-31 0 -55.5 24.5t-24.5 57.5z" />
<glyph unicode="&#x152;" horiz-adv-x="1677" d="M119 643q0 160 68.5 330t187.5 260q86 55 180 55q176 0 303 -178v74q0 25 19.5 45t46.5 20h518q25 0 45 -20.5t20 -44.5q0 -27 -20.5 -46.5t-44.5 -19.5h-453v-387h281q27 0 46 -20.5t19 -44.5q0 -27 -18.5 -46.5t-46.5 -19.5h-283v-422l2 -53h453q25 0 45 -19.5 t20 -46.5q0 -25 -20.5 -45t-44.5 -20h-518q-27 0 -46.5 20.5t-19.5 44.5v115q-123 -180 -303 -180q-94 0 -180 55q-119 90 -187.5 262t-68.5 332zM250 643q0 -135 51 -274.5t145 -208.5q57 -35 109 -35q92 0 165 84t105.5 188.5t32.5 196.5q0 104 -6 158v-2q-18 147 -97 278 t-200 131q-51 0 -109 -35q-94 -70 -145 -209t-51 -272z" />
<glyph unicode="&#x153;" horiz-adv-x="1540" d="M121 340q0 145 98 256t246 111q80 0 154.5 -43t121.5 -111q100 156 277 156q147 0 245.5 -111t98.5 -256q0 -25 -20.5 -45.5t-45.5 -20.5h-481q18 -74 73.5 -123t129.5 -49q125 0 186 93l-2 -2q20 33 55 32q27 0 45.5 -18.5t18.5 -44.5q0 -23 -8 -35v2q-45 -76 -124 -116 t-171 -40q-78 0 -152.5 42t-124.5 110q-100 -154 -276 -154q-147 0 -245.5 110t-98.5 257zM250 340q0 -96 61.5 -167t153.5 -71q94 0 152.5 71t58.5 169q0 94 -60.5 165t-150.5 71q-92 0 -153.5 -71t-61.5 -167zM815 406h408q-18 76 -73.5 125t-131.5 49q-72 0 -128.5 -50 t-74.5 -124z" />
<glyph unicode="&#x178;" horiz-adv-x="978" d="M100 1188q0 25 19.5 45t46.5 20q37 0 57 -36l252 -472l250 467q16 41 59 41q27 0 46.5 -20.5t19.5 -44.5q0 -18 -258 -506l-51 -96v-529q0 -29 -18.5 -47t-47.5 -18t-47 18.5t-18 46.5v531l-9 14q-10 14 -14 23v-2q-287 528 -287 565zM301 1337q0 31 24.5 56.5t59.5 25.5 q31 0 56.5 -25.5t25.5 -56.5q0 -35 -25.5 -59.5t-56.5 -24.5q-35 0 -59.5 24.5t-24.5 59.5zM481 1337q0 31 24.5 56.5t57.5 25.5q35 0 58.5 -24.5t23.5 -57.5q0 -35 -23.5 -59.5t-58.5 -24.5q-33 0 -57.5 24.5t-24.5 59.5z" />
<glyph unicode="&#x2c6;" horiz-adv-x="583" d="M119 1063q0 16 98 127l23 22q20 20 51 21q33 0 53 -21l25 -26q96 -102 96 -123q0 -18 -19.5 -32.5t-44.5 -14.5q-35 0 -57 22l-53 64l-58 -64q-16 -23 -51 -22q-27 0 -45 14.5t-18 32.5z" />
<glyph unicode="&#x2dc;" horiz-adv-x="671" d="M127 1090q0 57 30.5 105t100.5 48q31 0 56.5 -13t36.5 -24.5t32 -38.5q27 -31 29 -30q-4 0 2 51v4q0 51 59 51q23 0 42.5 -14.5t19.5 -34.5q0 -158 -127 -158q-33 0 -59.5 14.5t-38 27t-29.5 36.5q-20 29 -25 29l-8 -56q-6 -45 -62 -45q-25 0 -42 15t-17 33z" />
<glyph unicode="&#x2000;" horiz-adv-x="768" />
<glyph unicode="&#x2001;" horiz-adv-x="1536" />
<glyph unicode="&#x2002;" horiz-adv-x="768" />
<glyph unicode="&#x2003;" horiz-adv-x="1536" />
<glyph unicode="&#x2004;" horiz-adv-x="512" />
<glyph unicode="&#x2005;" horiz-adv-x="382" />
<glyph unicode="&#x2006;" horiz-adv-x="256" />
<glyph unicode="&#x2007;" horiz-adv-x="256" />
<glyph unicode="&#x2008;" horiz-adv-x="190" />
<glyph unicode="&#x2009;" horiz-adv-x="307" />
<glyph unicode="&#x200a;" horiz-adv-x="83" />
<glyph unicode="&#x2010;" horiz-adv-x="743" d="M106 653q0 27 19.5 45.5t46.5 18.5h375q27 0 44 -18.5t17 -45.5q0 -25 -18.5 -45t-42.5 -20h-375q-27 0 -46.5 20t-19.5 45z" />
<glyph unicode="&#x2011;" horiz-adv-x="743" d="M106 653q0 27 19.5 45.5t46.5 18.5h375q27 0 44 -18.5t17 -45.5q0 -25 -18.5 -45t-42.5 -20h-375q-27 0 -46.5 20t-19.5 45z" />
<glyph unicode="&#x2012;" horiz-adv-x="743" d="M106 653q0 27 19.5 45.5t46.5 18.5h375q27 0 44 -18.5t17 -45.5q0 -25 -18.5 -45t-42.5 -20h-375q-27 0 -46.5 20t-19.5 45z" />
<glyph unicode="&#x2013;" horiz-adv-x="985" d="M111 653.5q0 26.5 19.5 45t45.5 18.5h596q25 0 45.5 -18.5t20.5 -45t-20.5 -46t-45.5 -19.5h-596q-29 0 -47 19.5t-18 46z" />
<glyph unicode="&#x2014;" horiz-adv-x="1220" d="M115 653.5q0 26.5 19.5 45t45.5 18.5h815q27 0 46.5 -18.5t19.5 -45t-18.5 -46t-47.5 -19.5h-815q-29 0 -47 19.5t-18 46z" />
<glyph unicode="&#x2018;" horiz-adv-x="397" d="M111 991v15q-2 47 36.5 133t79.5 86q27 0 45.5 -20.5t18.5 -51.5l-21 -41q-18 -41 -22 -61q25 -20 24 -58q0 -35 -23.5 -58.5t-56 -23.5t-55 22.5t-26.5 57.5z" />
<glyph unicode="&#x2019;" horiz-adv-x="397" d="M113 985l18 39q18 41 23 61q-25 25 -25 58q0 35 24.5 58.5t57.5 23.5t55.5 -22.5t26.5 -57.5v-10q2 -47 -38 -135.5t-81 -88.5q-27 0 -44 20.5t-17 53.5z" />
<glyph unicode="&#x201a;" horiz-adv-x="397" d="M102 -84l41 102q-25 25 -24 58q0 31 25.5 56.5t56 25.5t54.5 -23.5t28 -54.5v-17q0 -47 -39 -133t-80 -86q-27 0 -44.5 20.5t-17.5 51.5z" />
<glyph unicode="&#x201c;" horiz-adv-x="602" d="M117 991v13q-2 45 37 133t79 88q27 0 45.5 -20.5t18.5 -51.5l-18 -41q-20 -41 -23 -61q25 -25 25 -58q0 -35 -24 -58.5t-58 -23.5q-33 0 -55.5 22.5t-26.5 57.5zM301 981v10q-2 45 37 134t80 89q29 0 46 -20t17 -53l-18 -39q-20 -41 -25 -62q25 -20 25 -57 q0 -35 -24.5 -58.5t-55.5 -23.5q-33 0 -55.5 22.5t-26.5 57.5z" />
<glyph unicode="&#x201d;" horiz-adv-x="602" d="M115 985l20 39q18 41 23 61q-25 20 -25 58q0 35 24.5 58.5t55.5 23.5q33 0 55.5 -22.5t26.5 -57.5v-10q2 -45 -37 -134.5t-80 -89.5q-29 0 -46 20.5t-17 53.5zM299 973l20 41q18 41 21 61q-25 25 -25 58q0 35 25 58t57.5 23t55 -22.5t26.5 -56.5v-13q2 -45 -37 -133 t-80 -88q-27 0 -45 20.5t-18 51.5z" />
<glyph unicode="&#x201e;" horiz-adv-x="614" d="M104 -84l43 102q-25 23 -24 58q0 31 24.5 56.5t55.5 25.5q33 0 55.5 -23.5t26.5 -54.5v-17q0 -49 -38 -134t-79 -85q-27 0 -45.5 20.5t-18.5 51.5zM317 -90l19 41q18 41 22 61q-25 25 -24.5 57.5t26 57.5t56.5 25q33 0 55.5 -23t26.5 -57v-11q2 -47 -38 -135t-81 -88 q-27 0 -44.5 20.5t-17.5 51.5z" />
<glyph unicode="&#x2022;" horiz-adv-x="729" d="M106 653.5q0 104.5 70 184.5t174 80q106 0 176 -79t70 -185.5t-69.5 -185.5t-176.5 -79q-104 0 -174 80t-70 184.5z" />
<glyph unicode="&#x2026;" horiz-adv-x="1077" d="M113 73.5q0 32.5 24.5 56.5t57.5 24q31 0 56 -24t25 -56.5t-25.5 -57t-55.5 -24.5q-35 0 -58.5 24.5t-23.5 57zM436 73.5q0 30.5 25.5 56.5t56.5 26q33 0 57.5 -26t24.5 -56.5t-24.5 -56t-57.5 -25.5q-31 0 -56.5 25.5t-25.5 56zM754 73.5q0 30.5 24.5 56.5t57 26 t57.5 -26t25 -56.5t-25 -56t-57.5 -25.5t-57 25.5t-24.5 56z" />
<glyph unicode="&#x202f;" horiz-adv-x="307" />
<glyph unicode="&#x2039;" horiz-adv-x="485" d="M102 336v8q0 16 7 27l133 286l-2 -2q20 43 61 43q25 0 44.5 -20.5t19.5 -44.5q0 -23 -107 -246l-22 -47l24 -53v2q104 -225 105 -242q0 -27 -19.5 -45t-44.5 -18q-45 0 -61 39l2 -3l-133 289v-2q-7 13 -7 29z" />
<glyph unicode="&#x203a;" horiz-adv-x="485" d="M102 47q0 23 131 293q-131 262 -131 293q0 25 18.5 45t45.5 20q35 0 57 -39l139 -294q2 -12 3 -25q0 -14 -3 -25l-139 -297q-18 -35 -57 -34q-27 0 -45.5 18t-18.5 45z" />
<glyph unicode="&#x205f;" horiz-adv-x="382" />
<glyph unicode="&#x20ac;" horiz-adv-x="960" d="M74 592q0 59 57 63q-57 8 -57 66q0 68 96 63q14 82 46 159t82 147.5t124 113.5t160 43q68 0 135 -31.5t112 -82.5q20 -20 20.5 -47t-18 -46.5t-45.5 -19.5q-20 0 -57 33q-82 66 -147 65q-106 0 -178 -100t-101 -234h295q25 0 44.5 -18t19.5 -45q0 -25 -19.5 -44.5 t-42.5 -21.5q23 -2 42.5 -21.5t19.5 -41.5q0 -27 -19.5 -46.5t-44.5 -19.5h-313q12 -98 42.5 -190t98.5 -166t156 -74q63 0 147 68q35 31 57 31q27 0 45.5 -19.5t18.5 -44.5q0 -23 -16 -43q-45 -53 -115 -87t-137 -34q-98 0 -179 53.5t-130.5 140.5t-79 179t-39.5 184 q-80 0 -80 68z" />
<glyph unicode="&#x2122;" horiz-adv-x="1179" d="M141 1198q0 29 29 29h313q29 0 29 -29q0 -27 -29 -27h-127v-563q0 -10 -9 -19t-19 -9q-12 0 -20.5 9t-8.5 19v563h-129q-29 0 -29 27zM545 608v598q0 12 9 20.5t19 8.5q23 0 31 -23l189 -514l190 519q8 18 27 18q29 0 28 -29v-598q0 -29 -28 -28q-10 0 -19.5 8t-9.5 20 v441l-160 -439q0 -2 -2 -6q-8 -20 -26 -20q-20 0 -27 20l-164 445v-441q0 -29 -29 -28q-10 0 -19 8t-9 20z" />
<glyph unicode="&#xe000;" horiz-adv-x="700" d="M0 700h700v-700h-700v700z" />
<glyph unicode="&#xfb01;" horiz-adv-x="1150" d="M100 659.5q0 26.5 18.5 46t45.5 19.5h84v270q0 113 66.5 174.5t181.5 61.5q61 0 138 -37t105 -86v2q10 -20 11 -39q0 -25 -18.5 -44t-45.5 -19t-57 30v-2q-66 66 -131 66q-51 0 -86 -23.5t-35 -70.5v-283h153q25 0 44.5 -19.5t19.5 -46t-19.5 -45t-44.5 -18.5h-153v-545 q0 -25 -19.5 -44t-46 -19t-45 19.5t-18.5 43.5v545h-84q-27 0 -45.5 18.5t-18.5 45zM862 842q0 35 23.5 58.5t58.5 23.5q31 0 55.5 -25t24.5 -57.5t-24.5 -56t-55.5 -23.5q-35 0 -58.5 23.5t-23.5 56.5zM879 53v576q0 25 19.5 45t45.5 20q23 0 43.5 -20.5t20.5 -44.5v-576 q0 -25 -20.5 -45t-43.5 -20q-27 0 -46 20t-19 45z" />
<glyph unicode="&#xfb02;" horiz-adv-x="1222" d="M100 659.5q0 26.5 18.5 46t45.5 19.5h84v270q0 113 66.5 174.5t181.5 61.5q61 0 138 -37t105 -86v2q10 -20 11 -39q0 -25 -18.5 -44t-45.5 -19t-57 30v-2q-66 66 -131 66q-51 0 -86 -23.5t-35 -70.5v-283h153q25 0 44.5 -19.5t19.5 -46t-19.5 -45t-44.5 -18.5h-153v-545 q0 -25 -19.5 -44t-46 -19t-45 19.5t-18.5 43.5v545h-84q-27 0 -45.5 18.5t-18.5 45zM981 51v1112q0 25 19.5 44.5t46 19.5t45 -19.5t18.5 -44.5v-1112q0 -25 -18.5 -44t-45 -19t-46 19t-19.5 44z" />
<glyph unicode="&#xfb03;" horiz-adv-x="2142" d="M1871 842q0 35 24 58.5t58 23.5q31 0 55.5 -25t24.5 -57.5t-24.5 -56t-55.5 -23.5q-35 0 -58.5 23.5t-23.5 56.5zM1888 53v576q0 25 19.5 45t45.5 20q23 0 43.5 -20.5t20.5 -44.5v-576q0 -25 -20.5 -45t-43.5 -20q-27 0 -46 20t-19 45zM983 659.5q0 26.5 18.5 46 t45.5 19.5h84v270q0 113 66.5 174.5t181.5 61.5q61 0 138 -37t105 -86v2q10 -20 11 -39q0 -25 -18.5 -44t-45.5 -19t-57 30v-2q-66 66 -131 66q-51 0 -86 -23.5t-35 -70.5v-283h153q25 0 44.5 -19.5t19.5 -46t-19.5 -45t-44.5 -18.5h-153v-545q0 -25 -19.5 -44t-46 -19 t-45 19.5t-18.5 43.5v545h-84q-27 0 -45.5 18.5t-18.5 45zM100 659.5q0 26.5 18.5 46t45.5 19.5h84v270q0 113 66.5 174.5t181.5 61.5q61 0 138 -37t105 -86v2q10 -20 11 -39q0 -25 -18.5 -44t-45.5 -19t-57 30v-2q-66 66 -131 66q-51 0 -86 -23.5t-35 -70.5v-283h153 q25 0 44.5 -19.5t19.5 -46t-19.5 -45t-44.5 -18.5h-153v-545q0 -25 -19.5 -44t-46 -19t-45 19.5t-18.5 43.5v545h-84q-27 0 -45.5 18.5t-18.5 45z" />
<glyph unicode="&#xfb04;" horiz-adv-x="2105" d="M1863 51v1112q0 25 19.5 44.5t46 19.5t45 -19.5t18.5 -44.5v-1112q0 -25 -18.5 -44t-45 -19t-46 19t-19.5 44zM983 659.5q0 26.5 18.5 46t45.5 19.5h84v270q0 113 66.5 174.5t181.5 61.5q61 0 138 -37t105 -86v2q10 -20 11 -39q0 -25 -18.5 -44t-45.5 -19t-57 30v-2 q-66 66 -131 66q-51 0 -86 -23.5t-35 -70.5v-283h153q25 0 44.5 -19.5t19.5 -46t-19.5 -45t-44.5 -18.5h-153v-545q0 -25 -19.5 -44t-46 -19t-45 19.5t-18.5 43.5v545h-84q-27 0 -45.5 18.5t-18.5 45zM100 659.5q0 26.5 18.5 46t45.5 19.5h84v270q0 113 66.5 174.5 t181.5 61.5q61 0 138 -37t105 -86v2q10 -20 11 -39q0 -25 -18.5 -44t-45.5 -19t-57 30v-2q-66 66 -131 66q-51 0 -86 -23.5t-35 -70.5v-283h153q25 0 44.5 -19.5t19.5 -46t-19.5 -45t-44.5 -18.5h-153v-545q0 -25 -19.5 -44t-46 -19t-45 19.5t-18.5 43.5v545h-84 q-27 0 -45.5 18.5t-18.5 45z" />
</font>
</defs>
</svg>
